<svg xmlns="http://www.w3.org/2000/svg" width="15" height="15" viewBox="0 0 15 15"><g fill-rule="evenodd" clip-rule="evenodd" fill="#FEFEFE"><path d="M9.896 9.896c-2.264 2.264-5.935 2.264-8.198 0s-2.264-5.934 0-8.198 5.935-2.264 8.198 0 2.263 5.934 0 8.198zm-1.23-6.97c-1.585-1.584-4.154-1.584-5.74 0-1.583 1.585-1.583 4.155 0 5.74 1.586 1.584 4.155 1.584 5.74 0 1.584-1.585 1.584-4.154 0-5.74z"/><path d="M10.195 9.158l1.12 1.12-1.038 1.038-1.12-1.12z"/><path d="M13.182 15l-3.294-3.295 1.818-1.818L15 13.18z"/></g></svg>