<svg xmlns="http://www.w3.org/2000/svg" width="16.601" height="13.773" viewBox="0 0 16.601 13.773"><path d="M16.6 4.958s-.005.753-.93 1.205c-.86.418-2.162.396-2.162.396s-1.243-.06-1.977-.444c-.84-.44-.81-1.158-.81-1.158h.202l2.21-3.726a.685.685 0 0 1-.152-.5l-3.71.85-.008.003v9.468h1.857v.73h1.568v1.99H3.756v-1.99H5.25v-.73h1.99V2.038l-.01.002-3.683.843a.677.677 0 0 1-.024.778L5.67 7.38h.21s-.008.753-.934 1.204c-.858.418-2.16.396-2.16.396S1.543 8.922.81 8.538C-.032 8.096 0 7.38 0 7.38h.2l2.213-3.732a.682.682 0 0 1 .47-1.07l.01-.157L7.24.803V.738h.095A.907.907 0 0 1 8.98.435l.018-.003 4.7-.432.005.118a.683.683 0 0 1 .516 1.078L16.39 4.96h.21zM.73 7.38h4.426L3.13 3.92a.677.677 0 0 1-.35-.01L.73 7.38zm13.102-5.918a.69.69 0 0 1-.32.005l-2.06 3.49h4.425l-2.045-3.495z" fill-rule="evenodd" clip-rule="evenodd" fill="#5e9a42"/></svg>