<svg xmlns="http://www.w3.org/2000/svg" width="180" height="46" viewBox="0 0 180 46"><g fill="#060508"><path d="M26.53.38h-3.5v20.26H3.92c-.08 0-.31 0-.398-.036-.02-.108-.015-.34-.012-.47a6.49 6.49 0 0 0 .005-.233V.38h-3.5v20.024c0 .54 0 1.968 1.12 2.844.75.61 1.813.692 2.853.692h22.168c.576 1.3.49 2.6-.133 3.898h2.773c.864-2.492 1.037-4.936.322-7.19h-2.59v-7.762h.002V.38zM57.838.11c-.9 0-2.053.795-3.966 2.73L36.524 20.13v.002V.38h-3.5v20.26c0 1.38.88 3.57 3.242 3.57.31 0 1.25 0 3.27-2.317L57.196 4.39v19.55h3.5V3.88C60.697.48 58.7.11 57.84.11zM62.812 3.678h14.074v20.26h3.5V3.68h13.97V.38H62.81zM119.83 7.647c0 2.543-.456 3.288-.595 3.452-.094.106-.636.643-2.272.643h-16.58V4.267c0-.082 0-.227.005-.333.058-.006.137-.014.246-.014h16.39c1.433 0 1.99.46 2.168.662.234.266.638 1.015.638 3.065zm1.77-5.773C120.15.6 118.47.494 116.873.494h-16.484c-.682 0-1.947.11-2.73.85-.89.842-.89 1.99-.89 2.677v19.94h3.615v-8.792h17.536c1.31 0 2.58-.407 3.48-1.12 1.94-1.487 2.164-4.12 2.164-5.973 0-2.72-.334-4.82-1.963-6.2zM148.504.35l-9.83 15.773L128.05.443l-.062-.092h-4.21l12.807 19.067-2.853 4.522h4.36L152.657.35zM163.02 20.498c-3.133 0-4.598-1.386-5.192-2.217-1.138-1.57-1.235-3.716-1.235-5.78 0-2.298.11-4.89 1.4-6.56 1.47-1.902 3.84-2.122 5.49-2.122h16.17V.38h-16.88c-3.943 0-6.296 1.838-7.35 2.937-2.267 2.43-2.576 5.835-2.576 9.152 0 4.3.78 6.832 2.693 8.744 1.243 1.244 3.49 2.726 7.14 2.726h17.314V20.5H163.02z"/></g><g fill="#FFF"><path d="M179.852 43.54v-6.583c-.006-.282-.05-.505-.143-.666a.88.88 0 0 0-.33-.35 1.113 1.113 0 0 0-.372-.134 1.474 1.474 0 0 0-.27-.022 1.48 1.48 0 0 0-.358.04c-.12.025-.24.08-.355.153a1.23 1.23 0 0 0-.328.328l-3.414 5.02c-.03.046-.06.092-.094.136-.032.04-.067.066-.112.068-.055 0-.09-.018-.102-.053a.44.44 0 0 1-.014-.15l.072-5.455h-1.693v6.67c0 .105.01.22.034.34a1 1 0 0 0 .15.354.803.803 0 0 0 .334.278c.15.073.348.112.598.113.19 0 .352-.02.48-.068a.98.98 0 0 0 .34-.2c.096-.09.19-.204.28-.34l3.37-4.935a.91.91 0 0 1 .135-.165c.032-.028.054-.04.07-.037.052 0 .083.02.085.058a.577.577 0 0 1 0 .145l-.057 5.457h1.694zM164.3 42.238v-4.7c0-.046.007-.09.022-.133a.427.427 0 0 1 .094-.13.51.51 0 0 1 .11-.068.283.283 0 0 1 .12-.033h1.664c.25.004.475.04.668.115.195.075.36.18.496.31.135.13.238.276.313.443.027.064.06.16.092.29.03.123.058.295.075.514.02.22.033.502.033.847 0 .38-.018.69-.045.935-.03.243-.07.437-.117.58-.05.14-.1.25-.154.324-.06.103-.152.21-.273.317s-.276.2-.47.275c-.19.074-.426.114-.705.115H164.3zm0 1.304h2.142c.197.004.414-.006.648-.026s.475-.063.72-.133a2.6 2.6 0 0 0 .708-.33c.227-.15.432-.352.615-.61.18-.263.313-.554.402-.872.086-.32.14-.65.17-.993.025-.346.04-.688.035-1.027a8.153 8.153 0 0 0-.018-.684c-.012-.243-.043-.494-.094-.747s-.133-.5-.242-.743a2.555 2.555 0 0 0-.457-.663 2.44 2.44 0 0 0-.597-.454 3.08 3.08 0 0 0-1.207-.36 3.806 3.806 0 0 0-.455-.024h-2.675a2.41 2.41 0 0 0-.48.04c-.17.033-.327.1-.476.207a.963.963 0 0 0-.196.193 1.056 1.056 0 0 0-.17.31 1.37 1.37 0 0 0-.068.435V46h1.693v-2.457zm-6.19-3.473v1.767a.548.548 0 0 1-.017.164.297.297 0 0 1-.102.153.47.47 0 0 1-.19.078c-.07.008-.133.013-.184.01h-2.36a.79.79 0 0 1-.312-.072.876.876 0 0 1-.236-.16.78.78 0 0 1-.15-.265 1.53 1.53 0 0 1-.066-.312 2.915 2.915 0 0 1-.016-.275c0-.18.012-.33.037-.44.02-.113.047-.2.078-.26a.407.407 0 0 1 .075-.123.58.58 0 0 1 .22-.177.797.797 0 0 1 .23-.072.983.983 0 0 1 .17-.01l2.824-.003zm-4.82-4.196v1.303h3.776c.09-.002.182.006.28.023a.97.97 0 0 1 .288.095c.094.05.182.12.258.217a.9.9 0 0 1 .18.362c.027.122.04.242.037.36v.535h-3.33a3.257 3.257 0 0 0-.438.023c-.152.02-.313.058-.477.122a1.675 1.675 0 0 0-.488.303c-.19.17-.332.354-.426.558a2.272 2.272 0 0 0-.183.638 5.16 5.16 0 0 0-.043.672c0 .145.008.308.02.488.01.183.04.37.08.563.043.198.11.384.2.562.09.178.212.34.366.473.148.123.3.212.463.265.156.053.316.085.475.097.16.013.31.02.453.016h3.66c.124 0 .247-.005.374-.018a1.61 1.61 0 0 0 .367-.087.882.882 0 0 0 .317-.2.966.966 0 0 0 .2-.316c.042-.118.073-.234.087-.352.01-.116.018-.222.016-.315v-3.98a3.43 3.43 0 0 0-.162-1.1c-.104-.307-.238-.542-.402-.708a1.804 1.804 0 0 0-.682-.433 2.558 2.558 0 0 0-.908-.16l-4.357-.003zm-2.44 0h-1.723l-2.59 5.817-2.447-5.816h-1.793l3.416 7.642L144.54 46h1.722l4.588-10.13zm-10.432 7.67v-1.303h-2.75a4.512 4.512 0 0 1-.73-.046 1.902 1.902 0 0 1-.685-.226 1.242 1.242 0 0 1-.51-.537 2.102 2.102 0 0 1-.154-.49 4.665 4.665 0 0 1-.073-.58 7.21 7.21 0 0 1-.02-.522c0-.06 0-.148.006-.268a7.51 7.51 0 0 1 .055-.815c.018-.14.04-.26.07-.365.06-.22.166-.42.318-.604.15-.184.352-.33.607-.44.258-.11.576-.167.955-.17h2.734v-1.302h-3.283c-.345.002-.646.03-.903.084s-.48.124-.666.21-.34.174-.47.27c-.125.093-.227.18-.305.26a2.64 2.64 0 0 0-.498.733c-.12.263-.205.535-.258.812a5.52 5.52 0 0 0-.097.82c-.016.268-.02.52-.02.746-.002.362.01.71.04 1.04.028.33.095.643.192.935.1.298.254.57.465.82.174.205.363.368.566.494.205.124.41.22.62.284.206.065.405.11.595.13s.358.035.505.032h3.693zm-14.71-4.572c0-.17.007-.328.017-.48.01-.15.04-.296.088-.434.047-.14.127-.272.24-.403.158-.17.332-.29.523-.363.19-.07.383-.113.57-.13.19-.01.36-.017.514-.013.16-.003.324.005.494.02.168.015.336.047.496.098.164.05.316.127.455.23.086.063.162.145.236.244.077.098.138.215.185.347.047.13.074.277.074.437a.703.703 0 0 1-.026.207.325.325 0 0 1-.105.17.392.392 0 0 1-.247.07h-3.516zm5.397 4.573v-1.303h-3.748a3.238 3.238 0 0 1-.473-.026c-.16-.02-.313-.06-.453-.12a1.043 1.043 0 0 1-.378-.274 1.22 1.22 0 0 1-.246-.49c-.018-.08-.035-.18-.05-.303s-.028-.25-.036-.385a4.877 4.877 0 0 1-.014-.37h4.457c.152.004.3-.015.44-.057a.91.91 0 0 0 .384-.23 1.12 1.12 0 0 0 .236-.354c.05-.13.088-.264.102-.4.018-.137.027-.273.023-.402a4.724 4.724 0 0 0-.082-.95 2.58 2.58 0 0 0-.322-.86 2.06 2.06 0 0 0-.682-.68 2.8 2.8 0 0 0-.77-.33 4.99 4.99 0 0 0-.862-.133c-.297-.02-.598-.03-.898-.028a12.34 12.34 0 0 0-.635.013c-.242.01-.49.034-.754.078a3.63 3.63 0 0 0-.777.217c-.252.1-.486.238-.7.417-.206.18-.372.384-.495.605-.124.225-.214.47-.272.735-.06.265-.1.557-.117.866a17.598 17.598 0 0 0 .007 2.02c.02.334.074.655.152.958.075.306.198.58.366.822.158.222.336.397.523.53.188.13.386.226.59.29a2.9 2.9 0 0 0 .624.122c.207.02.41.03.605.027h4.255zm-9.548 0v-1.303h-2.75a4.545 4.545 0 0 1-.73-.046 1.915 1.915 0 0 1-.686-.226 1.273 1.273 0 0 1-.507-.537 2.01 2.01 0 0 1-.154-.49 5.076 5.076 0 0 1-.073-.58 7.125 7.125 0 0 1-.018-.522c0-.06 0-.148.003-.268a7.51 7.51 0 0 1 .016-.392c.01-.145.022-.284.038-.423.018-.14.04-.26.07-.365.06-.22.166-.42.318-.604.15-.184.352-.33.607-.44.258-.11.576-.167.957-.17h2.732v-1.302H118.1c-.344.002-.645.03-.902.084s-.48.124-.666.21-.344.174-.47.27c-.126.093-.228.18-.308.26-.21.224-.377.468-.496.733-.12.263-.205.535-.26.812a5.79 5.79 0 0 0-.094.82c-.016.268-.02.52-.018.746-.002.362.008.71.04 1.04.026.33.093.643.192.935.098.298.252.57.463.82.177.205.364.368.57.494.202.124.41.22.616.284.207.065.406.11.596.13s.357.035.504.032h3.69zm-8.258 0l-3.272-3.416a1.18 1.18 0 0 1-.228-.35.53.53 0 0 1-.047-.184.58.58 0 0 1 .066-.24 1.484 1.484 0 0 1 .297-.38l2.907-3.1h-2.01l-2.447 2.72a3.97 3.97 0 0 0-.234.284c-.08.103-.152.217-.21.337a.903.903 0 0 0-.09.38.924.924 0 0 0 .073.364c.047.114.104.214.17.304s.13.167.19.23l2.792 3.053h2.04zm-5.603 0v-7.67h-1.69v7.67h1.69zm-6.19-3.473v1.767a.623.623 0 0 1-.013.164.297.297 0 0 1-.102.153.478.478 0 0 1-.193.078 1.1 1.1 0 0 1-.185.01h-2.357a.784.784 0 0 1-.314-.072.876.876 0 0 1-.236-.16.744.744 0 0 1-.148-.265 1.303 1.303 0 0 1-.066-.312 2.37 2.37 0 0 1-.016-.275c0-.18.012-.33.037-.44.02-.113.047-.2.076-.26s.054-.103.075-.123a.584.584 0 0 1 .22-.177.786.786 0 0 1 .23-.072c.075-.008.132-.014.173-.01l2.82-.003zM96.69 35.87v1.303h3.776c.088-.002.182.006.277.023a.952.952 0 0 1 .29.095c.093.05.18.12.257.217a.85.85 0 0 1 .18.362c.027.122.04.242.037.36v.535H98.18a3.224 3.224 0 0 0-.438.023c-.154.02-.314.058-.48.122a1.666 1.666 0 0 0-.485.303c-.19.17-.334.354-.428.558a2.27 2.27 0 0 0-.183.638c-.03.22-.045.446-.043.672-.002.145.006.308.016.488.014.183.043.37.084.563.043.198.11.384.2.562.09.178.212.34.366.473.146.123.3.212.46.265.16.053.32.085.478.097.16.013.31.02.45.016h3.663c.122 0 .245-.005.374-.018a1.61 1.61 0 0 0 .367-.087.874.874 0 0 0 .315-.2.9.9 0 0 0 .2-.316 1.57 1.57 0 0 0 .09-.352c.01-.116.017-.222.015-.315v-3.98a3.55 3.55 0 0 0-.16-1.1c-.107-.307-.24-.542-.404-.708a1.828 1.828 0 0 0-.684-.433 2.558 2.558 0 0 0-.908-.16l-4.355-.003zm-8.23 4.197v1.767a.624.624 0 0 1-.014.164.31.31 0 0 1-.102.153.484.484 0 0 1-.193.078c-.07.008-.13.013-.182.01h-2.36a.78.78 0 0 1-.312-.072.876.876 0 0 1-.236-.16.763.763 0 0 1-.15-.265 1.604 1.604 0 0 1-.068-.312 3.692 3.692 0 0 1-.014-.275c0-.18.013-.33.037-.44.02-.113.048-.2.078-.26a.426.426 0 0 1 .075-.123.594.594 0 0 1 .22-.177.81.81 0 0 1 .23-.072c.076-.008.13-.014.172-.01l2.82-.003zM83.64 35.87v1.303h3.776c.09-.002.18.006.277.023a.967.967 0 0 1 .29.095c.094.05.18.12.257.217a.846.846 0 0 1 .178.362c.03.122.042.242.04.36v.535h-3.33a3.257 3.257 0 0 0-.438.023 1.99 1.99 0 0 0-.478.122 1.666 1.666 0 0 0-.486.303c-.19.17-.333.354-.428.558a2.27 2.27 0 0 0-.183.638c-.03.22-.044.446-.042.672-.002.145.004.308.018.488.012.183.04.37.082.563.043.198.11.384.2.562s.212.34.366.473c.15.123.3.212.46.265.16.053.32.085.48.097.158.013.308.02.45.016h3.66c.124 0 .247-.005.375-.018a1.65 1.65 0 0 0 .367-.087.9.9 0 0 0 .316-.2.947.947 0 0 0 .2-.316 1.56 1.56 0 0 0 .086-.352c.013-.116.02-.222.018-.315v-3.98a3.578 3.578 0 0 0-.16-1.1c-.108-.307-.24-.542-.404-.708a1.816 1.816 0 0 0-.683-.433 2.563 2.563 0 0 0-.91-.16l-4.353-.003zm-5.467 7.67v-6.367h2.88V35.87h-7.453v1.303h2.88v6.368h1.693zM67.864 43.54v-6.585c-.005-.282-.05-.504-.143-.666a.86.86 0 0 0-.326-.35 1.134 1.134 0 0 0-.372-.136 1.68 1.68 0 0 0-.63.017c-.12.027-.24.08-.356.155a1.228 1.228 0 0 0-.328.328l-3.416 5.02a1.37 1.37 0 0 1-.09.135c-.032.042-.07.066-.112.07-.056 0-.09-.018-.1-.055a.404.404 0 0 1-.016-.15l.072-5.454h-1.693v6.67c-.002.103.01.218.034.34.023.122.074.24.15.354a.802.802 0 0 0 .333.278c.15.072.348.112.597.113.19 0 .352-.022.482-.068a.97.97 0 0 0 .336-.2c.097-.09.19-.204.28-.34l3.372-4.934a.913.913 0 0 1 .134-.167c.032-.027.053-.04.068-.035.056 0 .084.02.086.06a.688.688 0 0 1 0 .144l-.058 5.455h1.696zm-12.615 0v-6.367h2.878V35.87h-7.45v1.303h2.878v6.367h1.693zM43.01 38.968c0-.17.01-.33.02-.48.008-.153.038-.297.085-.435.05-.14.127-.27.24-.403.16-.172.332-.29.525-.364.19-.07.38-.112.57-.127.19-.014.36-.022.513-.017.16-.002.325.004.494.02.168.015.335.046.496.098.164.05.316.127.455.232.086.062.165.145.24.243.073.098.134.216.183.348.045.13.07.275.07.436a.638.638 0 0 1-.023.206.325.325 0 0 1-.105.17.41.41 0 0 1-.246.072H43.01zm5.397 4.572v-1.303h-3.75a3.558 3.558 0 0 1-.472-.027c-.16-.02-.312-.06-.454-.12a1.036 1.036 0 0 1-.377-.275 1.19 1.19 0 0 1-.246-.49c-.018-.078-.036-.18-.052-.302a6.99 6.99 0 0 1-.047-.754h4.458c.15.002.3-.017.44-.06a.91.91 0 0 0 .384-.23c.104-.11.184-.227.237-.354.048-.13.086-.263.1-.4.018-.137.026-.272.025-.402 0-.326-.025-.64-.082-.95a2.615 2.615 0 0 0-.324-.858 2.096 2.096 0 0 0-.68-.682 2.908 2.908 0 0 0-.773-.33 5.108 5.108 0 0 0-.864-.133c-.296-.02-.596-.03-.898-.027-.182-.003-.395.002-.633.013a5.91 5.91 0 0 0-.756.075c-.263.046-.52.118-.777.22a2.51 2.51 0 0 0-.7.417c-.207.18-.373.384-.497.605a2.745 2.745 0 0 0-.272.735c-.06.266-.1.556-.117.865-.017.314-.027.648-.024 1.006-.004.34.007.678.03 1.014.022.335.073.654.152.96.078.304.2.576.367.82.158.22.334.397.524.53a2.1 2.1 0 0 0 .59.288c.208.066.414.107.623.124.208.02.41.03.606.027h4.256zm-21.11 0h1.998L31.8 40.5c.066-.07.132-.153.202-.243.066-.09.125-.188.172-.294a.81.81 0 0 0 .076-.33.88.88 0 0 0-.083-.345 2.122 2.122 0 0 0-.197-.353 6.83 6.83 0 0 0-.255-.345l-2.185-2.72h-1.97l2.634 3.14c.042.045.085.104.135.177.047.07.09.142.126.212a.46.46 0 0 1 .056.174.46.46 0 0 1-.062.188 2.154 2.154 0 0 1-.258.406L27.3 43.54zm12.228 0l-2.894-3.373a2.095 2.095 0 0 1-.136-.176 1.8 1.8 0 0 1-.125-.22.51.51 0 0 1-.06-.196.31.31 0 0 1 .02-.103.894.894 0 0 1 .088-.184c.046-.073.12-.167.214-.277l2.618-3.14h-1.967l-2.17 2.72c-.09.11-.174.226-.254.344-.08.12-.148.235-.2.353a.893.893 0 0 0-.08.345.804.804 0 0 0 .073.33c.048.107.107.204.173.295.07.09.135.17.2.243l2.504 3.04h1.998zm-5.297 0v-7.67h-1.633v7.67h1.634zm-12.613-6.064a.61.61 0 0 1 .07-.134c.028-.042.06-.064.09-.066.042.002.073.027.093.074.02.043.04.085.05.127l1.84 4.76h-3.966l1.823-4.76zm-3.473 4.76h-.695v1.304h8.638v-1.303h-.68l-2.402-5.7a1.416 1.416 0 0 0-.21-.362.96.96 0 0 0-.377-.28c-.162-.072-.377-.11-.645-.11a1.752 1.752 0 0 0-.632.1.986.986 0 0 0-.386.27 1.28 1.28 0 0 0-.227.382l-2.386 5.7zm-4.47-2.17v1.766a.536.536 0 0 1-.013.163.3.3 0 0 1-.1.155.464.464 0 0 1-.193.077c-.07.006-.13.013-.183.01h-2.36a.832.832 0 0 1-.55-.23.76.76 0 0 1-.148-.266 1.573 1.573 0 0 1-.068-.313 3.22 3.22 0 0 1-.014-.275c0-.18.012-.33.037-.44.022-.113.05-.2.078-.26a.478.478 0 0 1 .075-.125.575.575 0 0 1 .22-.175.9.9 0 0 1 .4-.084l2.822-.002zM8.86 35.87v1.303h3.777c.09-.003.18.005.277.02.098.02.195.05.29.098.094.05.18.12.258.217a.863.863 0 0 1 .178.362c.03.12.04.24.038.36v.534h-3.328c-.135 0-.282.007-.438.025a1.918 1.918 0 0 0-.478.12 1.67 1.67 0 0 0-.487.305 1.69 1.69 0 0 0-.428.556 2.24 2.24 0 0 0-.183.637c-.03.22-.044.447-.04.673a5.39 5.39 0 0 0 .016.488c.013.183.042.37.082.564.044.195.11.38.2.56.09.178.213.338.368.472.146.123.298.213.46.267.16.053.318.085.478.097.16.013.31.02.45.016h3.662c.123 0 .246-.005.374-.018.128-.015.25-.044.367-.086a.913.913 0 0 0 .317-.203c.09-.094.157-.2.2-.314.043-.118.072-.234.086-.353a2.24 2.24 0 0 0 .017-.314v-3.98a3.45 3.45 0 0 0-.162-1.1c-.105-.308-.238-.544-.402-.71a1.797 1.797 0 0 0-.683-.432 2.563 2.563 0 0 0-.91-.162H8.86v-.002zm-7.016 7.67v-5.76c0-.094 0-.18.01-.254a.368.368 0 0 1 .106-.21.446.446 0 0 1 .148-.098.442.442 0 0 1 .2-.046H6.56V35.87H1.22a1.905 1.905 0 0 0-.325.024.978.978 0 0 0-.32.115.864.864 0 0 0-.267.264.963.963 0 0 0-.14.407 3.263 3.263 0 0 0-.02.448v6.412h1.694z"/></g></svg>