<svg xmlns="http://www.w3.org/2000/svg" width="165" height="165" viewBox="0 0 165 165"><path fill="#CB5599" d="M82.72 13.173l.207.003c.424 0 .846.006 1.27.016.2.003.404.01.604.014a91 91 0 0 1 1.893.082c.194.01.39.024.58.037.417.027.833.056 1.25.09l.167.016a69.403 69.403 0 0 1 23.668 6.336c.174.08.35.16.522.244.18.086.354.172.53.26a69.328 69.328 0 0 1 19.773 14.485l.09.09c.285.303.57.61.854.92l.406.443c.202.224.403.453.604.68.213.243.424.486.635.732.134.155.265.313.396.47.27.32.537.645.8.97l.138.165.117.15c.305.38.605.766.904 1.154l.155.2c.312.41.616.822.92 1.24l.132.18c.305.423.604.848.9 1.277l.11.16c.298.436.59.875.882 1.316l.097.15c.284.44.567.886.843 1.334l.096.15c.262.428.52.858.77 1.29l.133.227c.245.424.485.854.724 1.284l.13.23c.23.426.457.856.683 1.286l.13.247c.216.42.425.842.63 1.264.048.096.097.19.144.287.22.458.436.918.646 1.38l.08.173c.223.49.437.983.648 1.48l.042.096c.192.45.375.908.56 1.364l.09.223.01.015c.204.526.405 1.056.602 1.587l.003.006c.193.533.382 1.067.564 1.605l.003.008c.182.536.355 1.074.523 1.615l.005.016.07.222c.145.474.287.947.422 1.42l.04.15c.14.497.276.996.405 1.495.033.136.063.273.1.408.105.426.212.854.313 1.282l.043.188c.113.5.223 1 .324 1.5l.043.21c.1.498.194.994.285 1.49l.04.243c.087.49.17.98.244 1.472l.033.24c.076.504.148 1.008.212 1.51l.02.147c.065.534.126 1.067.183 1.602l.013.143c.057.54.104 1.08.147 1.62l.008.13c.042.537.076 1.073.104 1.61l.01.218c.023.512.044 1.02.06 1.533l.006.284c.01.48.018.956.02 1.434l.002.204-.002.22c-.002.42-.01.838-.018 1.257l-.017.606c-.01.323-.02.646-.034.97-.015.31-.026.616-.044.924-.012.19-.023.38-.037.57-.027.42-.057.84-.093 1.26l-.013.153a69.344 69.344 0 0 1-6.343 23.69c-.078.167-.154.334-.232.498l-.276.564a69.352 69.352 0 0 1-14.475 19.752l-.092.09c-.303.285-.61.57-.92.854l-.443.406c-.22.196-.44.394-.665.592-.255.222-.505.44-.76.66l-.437.364c-.333.28-.663.556-1 .828l-.156.127-.142.113a74.92 74.92 0 0 1-1.155.902l-.21.164c-.41.313-.823.618-1.243.925l-.164.12c-.435.312-.87.623-1.312.925l-.125.085c-.434.3-.87.59-1.312.878l-.166.11c-.45.29-.902.576-1.358.856l-.112.07c-.44.272-.89.537-1.337.8l-.18.105c-.42.24-.843.477-1.265.712l-.268.146c-.422.232-.85.457-1.275.682l-.248.13c-.42.216-.84.426-1.264.63l-.288.145c-.45.22-.904.43-1.357.637l-.195.09c-.474.214-.948.42-1.43.627l-.145.062c-.403.174-.812.336-1.218.5-.125.05-.244.103-.37.152l-.015.006c-.525.205-1.055.406-1.588.603l-.007.004c-.533.192-1.067.38-1.606.563l-.007.002c-.535.183-1.073.356-1.616.522-.276.09-.56.17-.84.253-.27.08-.54.164-.812.242-.117.034-.24.062-.363.097-.435.122-.865.24-1.302.354l-.215.054c-.486.123-.972.243-1.46.354l-.24.055c-.48.11-.966.215-1.446.314l-.262.05c-.476.1-.955.19-1.435.276l-.31.05c-.47.085-.94.165-1.412.236l-.258.034c-.498.075-.996.147-1.492.21l-.16.022a84.75 84.75 0 0 1-1.588.182l-.156.015c-.535.054-1.07.1-1.605.142l-.142.01c-.534.04-1.07.076-1.605.104l-.22.01c-.513.024-1.026.044-1.54.06l-.254.006c-.493.01-.983.02-1.474.02h-.392c-.423 0-.846-.01-1.27-.02-.202-.002-.402-.007-.604-.017-.325-.01-.65-.022-.975-.035-.306-.015-.612-.024-.917-.044-.194-.01-.388-.024-.582-.036-.417-.028-.833-.057-1.25-.09l-.166-.016a69.42 69.42 0 0 1-23.667-6.336c-.174-.08-.35-.16-.52-.242-.18-.086-.355-.176-.532-.262a69.318 69.318 0 0 1-19.774-14.484l-.088-.094c-.288-.3-.572-.607-.855-.916l-.406-.445c-.202-.227-.403-.45-.603-.68-.213-.243-.426-.484-.634-.73-.134-.155-.265-.313-.398-.47a62.89 62.89 0 0 1-.803-.974l-.136-.165-.164-.207c-.198-.245-.394-.49-.586-.743l-.06-.074a64.854 64.854 0 0 1-1.295-1.73l-.16-.214c-.192-.27-.383-.537-.573-.81l-.23-.332a72.77 72.77 0 0 1-1.676-2.54l-.3-.48c-.147-.24-.293-.478-.437-.717-.124-.203-.244-.41-.364-.614a82.874 82.874 0 0 1-.575-1c-.14-.245-.277-.487-.412-.735l-.323-.592a90.28 90.28 0 0 1-.43-.813c-.08-.157-.163-.313-.244-.472-.21-.412-.416-.828-.616-1.24l-.225-.47a54.86 54.86 0 0 1-.43-.92c-.072-.16-.146-.316-.218-.477-.19-.424-.375-.848-.557-1.273a72.15 72.15 0 0 1-.57-1.386l-.204-.512c-.17-.437-.337-.874-.5-1.314l-.12-.34c-.132-.36-.26-.724-.385-1.09l-.163-.48a70.31 70.31 0 0 1-.422-1.3l-.128-.424c-.107-.35-.21-.695-.313-1.047l-.156-.548c-.108-.39-.214-.775-.315-1.166l-.145-.565c-.09-.36-.18-.722-.264-1.082l-.116-.502c-.107-.47-.21-.94-.308-1.41l-.054-.273a87.555 87.555 0 0 1-.24-1.24l-.082-.463a76.208 76.208 0 0 1-.24-1.457l-.034-.23c-.07-.468-.135-.935-.195-1.397l-.04-.3a76.53 76.53 0 0 1-.18-1.59l-.015-.138a62.556 62.556 0 0 1-.136-1.553l-.015-.185c-.042-.54-.077-1.086-.105-1.627l-.012-.242a68.873 68.873 0 0 1-.056-1.506l-.007-.178c-.013-.52-.02-1.043-.02-1.563v-.188l.002-.403.003-.438a82.8 82.8 0 0 1 .017-.863l.004-.173a69.447 69.447 0 0 1 14.34-40.543l-.01-.005a69.907 69.907 0 0 1 11.692-11.967l.205-.16c.357-.286.717-.568 1.08-.846.135-.104.27-.205.406-.308.292-.222.587-.44.884-.66l.412-.3c.375-.272.756-.538 1.137-.8l.482-.33a82.44 82.44 0 0 1 1.474-.973 68.707 68.707 0 0 1 3.43-2.065l.29-.164a69.293 69.293 0 0 1 18.84-7.16l.25-.056c.502-.108 1.005-.21 1.51-.31l.014-.002c.507-.1 1.016-.19 1.524-.278l.256-.043.043-.01a93.21 93.21 0 0 1 1.18-.185l.062-.01.258-.036.256-.04c.402-.055.804-.107 1.204-.156l.093-.012.26-.03.093-.012c.377-.043.755-.084 1.134-.122l.623-.06c.34-.03.677-.058 1.016-.083l.645-.046c.33-.022.66-.043.99-.06l.774-.037a67.298 67.298 0 0 1 1.732-.05c.227-.004.455-.005.682-.006l.51-.004z"/><path fill="#A82782" d="M82.72 1.525c44.983 0 81.447 36.466 81.447 81.448 0 44.984-36.464 81.45-81.448 81.45-44.984 0-81.45-36.467-81.45-81.45 0-30.602 16.88-57.257 41.834-71.175a441.334 441.334 0 0 1 7.357 9.815C28.43 33.22 13.407 56.34 13.407 82.973c0 38.28 31.033 69.312 69.313 69.312s69.31-31.032 69.31-69.312S121 13.66 82.72 13.66c-5.16 0-10.184.566-15.02 1.637L63.336 3.853A81.507 81.507 0 0 1 82.72 1.525z"/><path fill="#A82782" d="M26.968 9.152l28.32.07-7.8 27.613z"/><g fill="#FFF"><path d="M42.843 126.83H41.38v-3.618h-3.777v3.62H36.14v-8.186h1.463v3.338h3.777v-3.338h1.463v8.185zM48.004 118.443c.587 0 1.083.076 1.487.23.405.152.73.366.977.644.246.28.422.61.527.992s.158.804.158 1.267v5.113c-.126.02-.302.05-.527.088-.226.035-.48.07-.763.102-.283.032-.59.06-.92.087-.33.026-.66.04-.984.04-.462 0-.887-.048-1.274-.143a2.843 2.843 0 0 1-1.007-.448 2.067 2.067 0 0 1-.66-.812c-.158-.336-.237-.738-.237-1.21 0-.452.092-.84.275-1.165a2.18 2.18 0 0 1 .748-.788c.314-.2.682-.347 1.102-.44a5.966 5.966 0 0 1 1.78-.12c.156.017.306.037.447.063.142.025.265.05.37.07.104.02.178.037.22.047v-.408c0-.24-.026-.48-.08-.717a1.652 1.652 0 0 0-.283-.63 1.427 1.427 0 0 0-.56-.44c-.236-.108-.543-.164-.92-.164-.483 0-.905.033-1.267.104-.362.067-.632.14-.81.21l-.174-1.21c.188-.084.503-.166.943-.244.44-.08.917-.12 1.43-.12zm.126 7.332c.346 0 .653-.008.92-.022.267-.015.49-.044.67-.086v-2.438c-.106-.055-.276-.1-.513-.136a5.636 5.636 0 0 0-.857-.056c-.22 0-.454.017-.7.048-.247.03-.472.098-.677.196s-.375.235-.512.41c-.136.17-.204.4-.204.684 0 .524.168.89.504 1.094.337.205.793.305 1.37.305zM58.532 119.592a3.527 3.527 0 0 1 1.14-.605c.436-.14.854-.213 1.252-.213 1.175 0 2.064.36 2.667 1.078.604.72.906 1.72.906 2.998 0 .547-.073 1.07-.22 1.573a3.84 3.84 0 0 1-.685 1.338c-.31.39-.7.7-1.17.93-.473.23-1.034.347-1.685.347-.745 0-1.364-.136-1.857-.408a3.102 3.102 0 0 1-1.172-1.12 4.766 4.766 0 0 1-.606-1.65 11.01 11.01 0 0 1-.173-2c0-.91.065-1.76.197-2.548.13-.787.37-1.48.716-2.078a4.32 4.32 0 0 1 1.44-1.486c.614-.393 1.403-.658 2.37-.794.282-.042.53-.076.747-.103.215-.025.404-.05.566-.07.163-.022.312-.044.45-.07.135-.026.277-.056.424-.087l.157 1.322c-.074.02-.15.037-.228.047-.08.01-.19.025-.33.047s-.332.047-.567.078c-.237.03-.544.067-.922.11-1.04.114-1.836.43-2.392.943-.557.514-.898 1.32-1.024 2.422zm-.094 2.504c0 .492.034.96.103 1.4.07.44.19.828.363 1.163.173.335.406.6.7.794.293.194.67.29 1.133.29.398 0 .74-.075 1.022-.228.284-.15.514-.357.693-.62a2.76 2.76 0 0 0 .394-.92 5.23 5.23 0 0 0 .024-2.164 2.427 2.427 0 0 0-.37-.897 1.94 1.94 0 0 0-.716-.63c-.3-.157-.674-.235-1.125-.235-.44 0-.863.094-1.267.283-.404.188-.716.42-.937.69-.01.116-.016.28-.016.488v.586zM73.796 122.74c0 .648-.094 1.236-.283 1.762a4.043 4.043 0 0 1-.794 1.354c-.342.38-.75.67-1.22.873a3.83 3.83 0 0 1-1.543.307c-.557 0-1.07-.103-1.542-.308a3.46 3.46 0 0 1-1.22-.874c-.34-.377-.605-.828-.794-1.354s-.282-1.11-.282-1.763c0-.64.094-1.227.283-1.756s.455-.983.795-1.36c.34-.378.748-.67 1.22-.874.472-.204.986-.307 1.542-.307s1.07.103 1.542.307a3.51 3.51 0 0 1 1.22.874c.34.377.605.83.793 1.36.19.532.283 1.116.283 1.755zm-1.526 0c0-.924-.207-1.655-.622-2.196-.415-.54-.98-.812-1.69-.812-.715 0-1.28.27-1.693.812-.415.54-.622 1.272-.622 2.195 0 .923.207 1.654.622 2.193.414.54.978.812 1.692.812.713 0 1.277-.27 1.69-.812.416-.538.623-1.27.623-2.194zM82.562 126.83H81.1v-3.618H77.32v3.62h-1.464v-8.186h1.464v3.338H81.1v-3.338h1.462v8.185zM84.12 128.357c.114.053.264.103.446.148.185.05.365.07.543.07.577 0 1.028-.128 1.353-.385.326-.258.62-.676.882-1.252a45.447 45.447 0 0 1-1.85-4.004 35.092 35.092 0 0 1-1.424-4.29h1.573c.115.474.256.98.418 1.527.163.546.345 1.107.544 1.686a35.534 35.534 0 0 0 1.37 3.398c.398-1.102.746-2.193 1.04-3.273s.57-2.19.833-3.335h1.512c-.38 1.543-.8 3.023-1.26 4.445s-.96 2.75-1.495 3.99a8.75 8.75 0 0 1-.653 1.22 3.72 3.72 0 0 1-.747.84c-.273.222-.58.384-.92.488s-.73.158-1.157.158a3.466 3.466 0 0 1-.73-.087 3.792 3.792 0 0 1-.33-.088c-.102-.03-.173-.056-.214-.076l.265-1.177zM96.27 127.02c-.662 0-1.24-.104-1.74-.313a3.508 3.508 0 0 1-1.258-.88 3.63 3.63 0 0 1-.764-1.348 5.582 5.582 0 0 1-.252-1.725c0-.63.092-1.206.275-1.73.184-.523.444-.978.78-1.36a3.458 3.458 0 0 1 1.233-.896 3.98 3.98 0 0 1 1.63-.323c.366 0 .733.03 1.102.095.367.063.72.162 1.055.3L98 120.08a3.68 3.68 0 0 0-.764-.252 4.318 4.318 0 0 0-.922-.096c-.817 0-1.444.26-1.88.77-.436.515-.652 1.267-.652 2.25 0 .442.05.847.15 1.213.097.367.255.683.47.944.217.262.492.463.826.604.336.142.746.213 1.23.213.388 0 .74-.037 1.054-.11.315-.073.563-.15.74-.236l.204 1.23a1.4 1.4 0 0 1-.362.148c-.156.048-.336.09-.535.126-.2.037-.41.068-.638.096-.227.027-.443.04-.652.04zM106.732 126.83h-1.463v-3.618h-3.777v3.62h-1.464v-8.186h1.463v3.338h3.776v-3.338h1.462v8.185zM109.25 118.646h1.465v3.133c.178-.044.438-.085.778-.128.34-.04.67-.063.983-.063.43 0 .84.05 1.23.148.387.1.728.257 1.02.472.295.216.527.493.7.834.173.342.26.748.26 1.22 0 .493-.083.913-.25 1.26-.17.347-.405.63-.71.85s-.672.38-1.102.48c-.432.1-.902.15-1.416.15a12.588 12.588 0 0 1-2.96-.346l.003-8.012zm3.007 4.14c-.282 0-.56.01-.825.024-.268.015-.507.05-.717.102v2.816c.063.012.154.02.275.03.12.013.252.02.394.024.142.006.285.01.433.017.146.004.277.008.395.008.64 0 1.133-.12 1.48-.363.347-.24.52-.63.52-1.164a1.33 1.33 0 0 0-.165-.675 1.376 1.376 0 0 0-.44-.465 2.042 2.042 0 0 0-.622-.27 3.05 3.05 0 0 0-.728-.083zm6.405 4.045h-1.464v-8.184h1.464v8.185zM128.057 118.646v8.185h-1.416v-6.23c-.312.398-.66.865-1.038 1.4a72.217 72.217 0 0 0-3.115 4.83h-1.307v-8.184h1.416v5.886c.273-.45.584-.946.93-1.487.347-.54.705-1.074 1.078-1.604.37-.53.744-1.038 1.117-1.525.372-.488.722-.91 1.048-1.27h1.29zm-3.43-1.32c-.662 0-1.2-.168-1.613-.504s-.664-.803-.748-1.4l1.117-.3a1.8 1.8 0 0 0 .426.82c.197.208.472.312.816.312.347 0 .62-.104.817-.313a1.8 1.8 0 0 0 .426-.817l1.1.3c-.083.597-.33 1.063-.737 1.4-.41.335-.946.503-1.607.503zM71.02 145.902c-.662 0-1.242-.104-1.74-.313-.5-.21-.918-.505-1.26-.882a3.655 3.655 0 0 1-.762-1.347 5.58 5.58 0 0 1-.25-1.722c0-.63.09-1.207.274-1.73.183-.524.443-.98.78-1.36a3.475 3.475 0 0 1 1.234-.897 3.997 3.997 0 0 1 1.63-.32c.366 0 .733.03 1.1.094a4.98 4.98 0 0 1 1.055.3l-.33 1.242a3.632 3.632 0 0 0-.763-.252 4.313 4.313 0 0 0-.92-.095c-.818 0-1.445.257-1.88.77-.436.514-.654 1.266-.654 2.25 0 .44.05.846.15 1.213.098.366.256.683.47.943.216.264.49.464.827.605.335.143.745.214 1.228.214.388 0 .74-.037 1.054-.11.315-.073.56-.15.74-.235l.205 1.227a1.475 1.475 0 0 1-.362.15 4.78 4.78 0 0 1-.535.124c-.2.038-.412.07-.637.097a6.203 6.203 0 0 1-.654.035zM75.708 137.53v2.41c0 .618.157 1.05.472 1.296.314.248.745.37 1.29.37.4 0 .732-.02 1-.062.268-.042.506-.09.716-.142v-3.872h1.464v8.184h-1.464v-3.18c-.084.022-.194.048-.33.08a6.52 6.52 0 0 1-.464.086c-.173.026-.354.05-.543.07-.19.022-.374.032-.552.032-.45 0-.863-.05-1.235-.143-.373-.097-.692-.253-.96-.474s-.478-.512-.63-.873c-.15-.362-.227-.815-.227-1.36v-2.425h1.462v.003zM82.71 141.64c0-.725.105-1.355.315-1.897.21-.54.488-.99.834-1.347a3.454 3.454 0 0 1 1.196-.803c.45-.18.91-.268 1.385-.268 1.103 0 1.946.344 2.534 1.03.588.687.88 1.733.88 3.14v.244c0 .098-.005.19-.016.274h-5.603c.063.85.31 1.494.738 1.936.433.44 1.103.66 2.017.66.514 0 .944-.045 1.297-.133.353-.09.616-.177.795-.26l.205 1.227c-.18.096-.49.195-.937.3a6.725 6.725 0 0 1-1.52.157c-.713 0-1.33-.106-1.85-.32a3.455 3.455 0 0 1-1.28-.89 3.623 3.623 0 0 1-.75-1.346 5.782 5.782 0 0 1-.24-1.705zm5.62-.803c.01-.66-.156-1.204-.496-1.63-.342-.424-.81-.637-1.408-.637a1.94 1.94 0 0 0-.89.195 2.13 2.13 0 0 0-.653.512 2.39 2.39 0 0 0-.416.725 3.44 3.44 0 0 0-.197.835h4.06zM97.738 137.53v1.23H95.08v6.955h-1.464v-6.956h-2.66v-1.23h6.782z"/></g><g fill="#FFF"><path d="M125.333 65.75h-3.33v6.425h-1.353v-7.56h4.683v1.134zM133.387 68.41c0 .57-.076 1.1-.227 1.583-.15.485-.37.9-.66 1.25-.29.35-.647.62-1.068.814-.422.194-.904.29-1.447.29a3.5 3.5 0 0 1-1.154-.173c-.334-.117-.584-.228-.748-.334v3.024h-1.353V64.847c.317-.077.72-.162 1.198-.254a8.897 8.897 0 0 1 1.664-.138c.58 0 1.105.092 1.57.276.465.186.86.447 1.19.786.33.34.585.754.765 1.243.18.49.27 1.04.27 1.65zm-1.41 0c0-.883-.22-1.562-.654-2.037-.438-.475-1.018-.712-1.745-.712a7.96 7.96 0 0 0-.95.045c-.23.03-.41.063-.546.102v4.77c.164.135.4.265.712.39s.648.19 1.018.19c.39 0 .72-.07.996-.21.275-.142.502-.335.676-.583a2.43 2.43 0 0 0 .38-.872 4.95 4.95 0 0 0 .113-1.083zM141.484 72.174h-1.354V68.83h-3.488v3.344h-1.353v-7.56h1.352v3.083h3.488v-3.083h1.354v7.56z"/></g><g fill="#FFF"><path d="M31.952 57.59c-.68 0-1.36-.02-2.033-.063a14.403 14.403 0 0 1-2.105-.295V45.197a17.79 17.79 0 0 1 1.88-.242c.68-.054 1.314-.08 1.9-.08.787 0 1.512.056 2.175.17.662.113 1.233.308 1.71.58.477.277.85.637 1.12 1.085s.402 1 .402 1.657c0 .99-.48 1.773-1.433 2.346.787.3 1.324.705 1.61 1.218.287.515.43 1.093.43 1.738 0 1.302-.475 2.28-1.424 2.938-.948.656-2.36.984-4.234.984zm-1.415-7.7h1.36c.86 0 1.475-.11 1.845-.332.37-.22.555-.576.555-1.065 0-.502-.192-.854-.573-1.056-.382-.204-.943-.305-1.683-.305-.24 0-.495.003-.77.01-.275.005-.52.02-.734.044v2.704zm0 2.13v3.207c.203.024.423.042.663.054.238.013.5.02.788.02.836 0 1.51-.12 2.023-.36.515-.238.772-.68.772-1.325 0-.573-.215-.98-.645-1.226-.43-.247-1.045-.37-1.845-.37h-1.755zM48.482 52.7c0 .742-.108 1.42-.323 2.034a4.396 4.396 0 0 1-.933 1.576 4.203 4.203 0 0 1-1.46 1.013c-.566.238-1.202.358-1.907.358-.692 0-1.322-.12-1.89-.357a4.184 4.184 0 0 1-1.458-1.013 4.62 4.62 0 0 1-.95-1.576 5.824 5.824 0 0 1-.34-2.033c0-.74.118-1.414.35-2.022a4.59 4.59 0 0 1 .967-1.558c.41-.43.9-.765 1.467-1.004a4.742 4.742 0 0 1 1.854-.358c.682 0 1.306.12 1.873.358.567.24 1.054.574 1.46 1.004.406.43.722.948.95 1.558a5.77 5.77 0 0 1 .34 2.023zm-2.722 0c0-.823-.164-1.47-.493-1.942-.328-.472-.797-.708-1.406-.708-.607 0-1.08.236-1.413.708-.334.472-.502 1.12-.502 1.943 0 .825.168 1.48.502 1.962s.806.725 1.414.725c.61 0 1.08-.24 1.407-.725.33-.484.493-1.137.493-1.96zM50.093 48.313c.418-.155.9-.28 1.45-.375a10.406 10.406 0 0 1 1.792-.144c.49 0 .967.045 1.433.134.466.09.88.24 1.245.448.365.21.657.483.878.823.22.34.332.767.332 1.28 0 .465-.107.862-.322 1.19s-.52.6-.914.816c.525.226.914.525 1.165.896.25.37.377.84.377 1.415 0 .538-.114.988-.34 1.353s-.53.66-.913.886a4.188 4.188 0 0 1-1.307.492c-.49.102-.998.153-1.522.153-.31 0-.633-.014-.967-.043-.334-.03-.66-.072-.977-.126a7.933 7.933 0 0 1-1.673-.474l.483-2.077c.25.095.636.207 1.156.34a7.23 7.23 0 0 0 1.764.196c1.074 0 1.612-.3 1.612-.896a.87.87 0 0 0-.126-.493.874.874 0 0 0-.33-.295 1.422 1.422 0 0 0-.476-.144 4.04 4.04 0 0 0-.538-.036h-2.095v-1.898h2.113c.43 0 .73-.087.905-.26.172-.173.26-.373.26-.6s-.1-.433-.296-.618c-.197-.186-.56-.277-1.084-.277-.526 0-1.02.047-1.486.142-.466.096-.842.186-1.128.27l-.47-2.08zM63.49 57.608c-.333 0-.692-.012-1.074-.036a22.417 22.417 0 0 1-3.01-.395V48.15c.228-.047.505-.092.834-.134s.678-.08 1.048-.116c.37-.037.746-.063 1.128-.08.38-.02.74-.028 1.075-.028.776 0 1.43.078 1.962.233.53.155.96.358 1.29.608.328.25.563.53.707.842s.214.62.214.932c0 .418-.102.8-.305 1.146-.205.346-.46.598-.772.752a2.562 2.562 0 0 1 .985.78c.144.185.26.406.35.662s.133.552.133.886c0 .383-.074.752-.224 1.11-.15.358-.402.675-.76.95-.36.273-.83.494-1.417.662-.583.17-1.305.253-2.164.253zm.09-5.91c.44 0 .8-.057 1.075-.17.275-.113.412-.36.412-.743 0-.358-.155-.603-.465-.734-.31-.13-.717-.196-1.218-.196-.167 0-.385.01-.654.027-.27.02-.487.04-.653.064V51.7h1.504zm-1.504 3.76a12.256 12.256 0 0 0 1.45.09c.597 0 1.063-.074 1.397-.224.334-.148.5-.42.5-.814 0-.38-.15-.647-.456-.797-.305-.15-.75-.224-1.334-.224h-1.558v1.97zM78.874 52.72c0 .728-.09 1.39-.27 1.987a4.442 4.442 0 0 1-.787 1.54c-.346.43-.776.765-1.29 1.003-.513.24-1.104.358-1.772.358a4.77 4.77 0 0 1-1.972-.412v3.546h-2.668v-12.41c.24-.072.514-.14.825-.207.31-.066.635-.122.975-.17.34-.047.687-.086 1.04-.116.352-.03.69-.046 1.01-.046.777 0 1.47.117 2.08.35.608.232 1.12.56 1.54.984.417.424.737.94.958 1.55.22.608.33 1.29.33 2.042zm-2.722.07c0-.823-.186-1.482-.555-1.978-.37-.495-.92-.744-1.648-.744-.24 0-.46.01-.664.027a5.63 5.63 0 0 0-.5.063v4.818c.166.107.385.197.653.27.268.07.54.106.814.106 1.265 0 1.898-.854 1.898-2.56zM84.317 47.758c.79 0 1.444.09 1.972.27.523.178.944.435 1.26.77.317.333.54.74.673 1.217.13.477.196 1.008.196 1.594v5.55c-.383.084-.913.183-1.595.296-.68.113-1.505.17-2.472.17-.608 0-1.16-.053-1.656-.16a3.585 3.585 0 0 1-1.28-.53 2.424 2.424 0 0 1-.825-.957c-.19-.394-.286-.878-.286-1.45 0-.55.11-1.016.332-1.398.22-.382.516-.687.886-.914.37-.227.794-.39 1.27-.492a7.102 7.102 0 0 1 1.488-.153c.346 0 .653.015.923.045.268.03.486.07.653.117v-.25c0-.455-.138-.818-.412-1.093-.275-.275-.752-.413-1.433-.413-.453 0-.902.032-1.344.098a5.84 5.84 0 0 0-1.147.276l-.34-2.15a9.425 9.425 0 0 1 1.344-.294c.274-.042.563-.078.87-.108a9.71 9.71 0 0 1 .92-.044zm.215 7.81c.264 0 .514-.007.753-.02.238-.012.43-.03.573-.053v-2.023a4.957 4.957 0 0 0-.483-.072 5.634 5.634 0 0 0-.59-.036c-.253 0-.488.016-.71.045s-.414.086-.58.168c-.168.084-.3.197-.396.34a.953.953 0 0 0-.144.538c0 .418.14.708.42.87.282.16.667.24 1.156.24zM103.052 57.43H90.837v-9.42h2.67v7.235h2.452V48.01h2.67v7.235h2.435V48.01h2.668v7.235h1.594v4.87h-2.274V57.43zM110.324 47.758c.786 0 1.443.09 1.968.27.527.178.946.435 1.265.77.315.333.54.74.67 1.217a5.97 5.97 0 0 1 .198 1.594v5.55a33.68 33.68 0 0 1-1.594.296c-.68.113-1.504.17-2.47.17-.61 0-1.163-.053-1.657-.16a3.59 3.59 0 0 1-1.28-.53 2.403 2.403 0 0 1-.824-.957c-.19-.394-.288-.878-.288-1.45 0-.55.11-1.016.33-1.398.222-.382.518-.687.89-.914.367-.227.79-.39 1.27-.492s.974-.153 1.486-.153c.347 0 .654.015.923.045.27.03.488.07.653.117v-.25c0-.455-.137-.818-.41-1.093-.276-.275-.753-.413-1.434-.413-.455 0-.902.032-1.344.098a5.806 5.806 0 0 0-1.146.276l-.342-2.15a10.438 10.438 0 0 1 1.344-.295c.275-.04.564-.077.87-.107.305-.03.612-.044.924-.044zm.213 7.81c.264 0 .515-.007.753-.02.24-.012.43-.03.572-.053v-2.023a4.83 4.83 0 0 0-.482-.072 5.4 5.4 0 0 0-1.298.01 1.89 1.89 0 0 0-.583.168c-.167.084-.3.197-.395.34a.937.937 0 0 0-.144.538c0 .418.14.708.422.87.28.16.666.24 1.155.24zM116.394 52.79c0-.834.13-1.566.385-2.193a4.758 4.758 0 0 1 1.01-1.567 4.21 4.21 0 0 1 1.444-.95 4.506 4.506 0 0 1 1.675-.322c1.336 0 2.393.41 3.168 1.227.776.818 1.163 2.02 1.163 3.61 0 .155-.005.325-.017.51s-.024.35-.036.493h-6.052c.06.55.315.984.77 1.307.454.322 1.062.483 1.828.483.49 0 .968-.044 1.44-.134.472-.09.857-.2 1.155-.332l.357 2.167c-.143.07-.334.142-.573.213a7.59 7.59 0 0 1-.797.188c-.292.055-.605.1-.94.135-.333.036-.67.054-1.002.054-.85 0-1.585-.126-2.213-.377a4.295 4.295 0 0 1-1.558-1.03 4.107 4.107 0 0 1-.913-1.55 6.156 6.156 0 0 1-.296-1.932zm6.27-1.02a2.844 2.844 0 0 0-.117-.663 1.612 1.612 0 0 0-.825-.985c-.21-.107-.47-.16-.778-.16-.3 0-.556.05-.77.15a1.554 1.554 0 0 0-.538.404c-.144.167-.254.36-.33.582a3.72 3.72 0 0 0-.17.672h3.528zM129.95 51.994c-.02.42-.047.873-.07 1.363-.025.49-.045.984-.062 1.48l-.054 1.417c-.02.45-.033.84-.045 1.175h-2.6c.025-.657.064-1.398.117-2.222.054-.824.114-1.663.18-2.516a143.57 143.57 0 0 1 .44-4.684h2.22c.515.834.99 1.7 1.42 2.593.43.896.886 1.878 1.366 2.95.502-1.143.994-2.2 1.472-3.172.48-.97.91-1.76 1.295-2.37h2.256c.085.646.164 1.374.242 2.186a132.336 132.336 0 0 1 .492 7.236h-2.65a140.04 140.04 0 0 0-.1-2.78c-.04-.92-.08-1.812-.116-2.673l-1.976 4.342h-1.85l-1.977-4.326z"/></g></svg>