<?xml version="1.0" encoding="utf-8"?>
<!-- Generator: Adobe Illustrator 16.0.0, SVG Export Plug-In . SVG Version: 6.00 Build 0)  -->
<!DOCTYPE svg PUBLIC "-//W3C//DTD SVG 1.1//EN" "http://www.w3.org/Graphics/SVG/1.1/DTD/svg11.dtd">
<svg version="1.1" id="Layer_1" xmlns="http://www.w3.org/2000/svg" xmlns:xlink="http://www.w3.org/1999/xlink" x="0px" y="0px"
	 width="15px" height="15px" viewBox="0 0 15 15" enable-background="new 0 0 15 15" xml:space="preserve">
<g>
	<path fill-rule="evenodd" clip-rule="evenodd" fill="#FEFEFE" d="M9.896,9.896c-2.264,2.264-5.935,2.264-8.198,0
		s-2.264-5.934,0-8.198s5.935-2.264,8.198,0S12.159,7.632,9.896,9.896z M8.666,2.927c-1.585-1.585-4.154-1.585-5.739,0
		c-1.584,1.584-1.584,4.154,0,5.739c1.585,1.584,4.154,1.584,5.739,0C10.25,7.081,10.25,4.512,8.666,2.927z"/>
	
		<rect x="9.444" y="9.503" transform="matrix(0.7071 0.7071 -0.7071 0.7071 10.2368 -4.2398)" fill-rule="evenodd" clip-rule="evenodd" fill="#FEFEFE" width="1.584" height="1.468"/>
	
		<rect x="10.115" y="11.159" transform="matrix(-0.7072 -0.7071 0.7071 -0.7072 12.445 30.0425)" fill-rule="evenodd" clip-rule="evenodd" fill="#FEFEFE" width="4.658" height="2.571"/>
</g>
</svg>
