<?xml version="1.0" encoding="utf-8"?>
<!-- Generator: Adobe Illustrator 16.0.0, SVG Export Plug-In . SVG Version: 6.00 Build 0)  -->
<!DOCTYPE svg PUBLIC "-//W3C//DTD SVG 1.1//EN" "http://www.w3.org/Graphics/SVG/1.1/DTD/svg11.dtd">
<svg version="1.1" id="Layer_1" xmlns="http://www.w3.org/2000/svg" xmlns:xlink="http://www.w3.org/1999/xlink" x="0px" y="0px"
	 width="13px" height="12px" viewBox="0 0 13 12" enable-background="new 0 0 13 12" xml:space="preserve">
<path fill="#C2C2C2" d="M11.843,7.439c0,0-0.963,1.344-2.21,2.4C8.204,11.053,6.499,12,6.499,12s-1.704-0.947-3.132-2.16
	c-1.246-1.058-2.209-2.4-2.209-2.4s-1.231-1.486-1.154-3.565c0.071-1.915,1.385-3.018,1.385-3.018S2.39-0.197,3.993,0.033
	C5.648,0.27,6.499,1.747,6.499,1.747v0.001c0,0,0.853-1.477,2.507-1.714c1.604-0.23,2.605,0.823,2.605,0.823
	s1.315,1.102,1.386,3.018C13.074,5.953,11.843,7.439,11.843,7.439z"/>
</svg>
