<?xml version="1.0" encoding="iso-8859-1"?>
<!-- Generator: Adobe Illustrator 16.0.0, SVG Export Plug-In . SVG Version: 6.00 Build 0)  -->
<!DOCTYPE svg PUBLIC "-//W3C//DTD SVG 1.1//EN" "http://www.w3.org/Graphics/SVG/1.1/DTD/svg11.dtd">
<svg version="1.1" id="Layer_1" xmlns="http://www.w3.org/2000/svg" xmlns:xlink="http://www.w3.org/1999/xlink" x="0px" y="0px"
	 width="16.601px" height="13.773px" viewBox="0 0 16.601 13.773" style="enable-background:new 0 0 16.601 13.773;"
	 xml:space="preserve">
<path style="fill-rule:evenodd;clip-rule:evenodd;fill:#FFFFFF;" d="M16.601,4.958c0,0-0.006,0.753-0.932,1.204
	c-0.859,0.418-2.161,0.396-2.161,0.396s-1.243-0.058-1.977-0.443c-0.842-0.441-0.81-1.158-0.81-1.158h0.201l2.209-3.726
	c-0.096-0.118-0.154-0.269-0.154-0.433c0-0.022,0.001-0.044,0.003-0.066l-3.71,0.85L9.262,1.585v9.468h1.857v0.729h1.569v1.99H3.756
	v-1.99h1.493v-0.729h1.99V2.038L7.231,2.04L3.547,2.883c0.07,0.107,0.11,0.235,0.11,0.372c0,0.152-0.05,0.292-0.134,0.406L5.67,7.38
	h0.209c0,0-0.007,0.753-0.933,1.204C4.088,9.002,2.786,8.98,2.786,8.98S1.543,8.922,0.81,8.538C-0.032,8.096,0,7.38,0,7.38h0.2
	l2.213-3.732C2.335,3.537,2.289,3.401,2.289,3.254c0-0.347,0.259-0.633,0.593-0.677l0.012-0.156l4.345-1.619V0.738h0.096
	C7.424,0.33,7.787,0.025,8.222,0.025c0.317,0,0.596,0.163,0.758,0.41l0.018-0.003L13.698,0l0.005,0.118
	c0.358,0.022,0.642,0.318,0.642,0.682c0,0.147-0.047,0.284-0.126,0.396l2.173,3.763H16.601z M0.731,7.38h4.425l-2.025-3.46
	C3.081,3.932,3.028,3.938,2.973,3.938c-0.068,0-0.133-0.01-0.194-0.028L0.731,7.38z M13.832,1.462
	c-0.055,0.014-0.112,0.022-0.171,0.022c-0.051,0-0.101-0.006-0.148-0.017l-2.061,3.491h4.425L13.832,1.462z"/>
</svg>
