<?xml version="1.0" encoding="utf-8"?>
<!-- Generator: Adobe Illustrator 16.2.0, SVG Export Plug-In . SVG Version: 6.00 Build 0)  -->
<!DOCTYPE svg PUBLIC "-//W3C//DTD SVG 1.1//EN" "http://www.w3.org/Graphics/SVG/1.1/DTD/svg11.dtd">
<svg version="1.1" id="Layer_1" xmlns="http://www.w3.org/2000/svg" xmlns:xlink="http://www.w3.org/1999/xlink" x="0px" y="0px"
	 width="180px" height="46px" viewBox="0 0 180 46" enable-background="new 0 0 180 46" xml:space="preserve">
<g>
	<path fill="#060508" d="M26.531,0.38h-3.5v20.261H3.92c-0.079,0-0.311,0-0.398-0.037c-0.021-0.108-0.015-0.341-0.012-0.471
		c0.003-0.082,0.005-0.161,0.005-0.232V0.38H0.016v20.024c0,0.54,0,1.968,1.119,2.844c0.75,0.61,1.813,0.692,2.853,0.692h22.168
		c0.576,1.299,0.491,2.6-0.133,3.898c1.063,0,1.71,0,2.773,0c0.864-2.492,1.037-4.936,0.322-7.191h-2.589v-7.761h0.001V0.38z"/>
	<path fill="#060508" d="M57.838,0.111c-0.901,0-2.053,0.794-3.966,2.728l-17.348,17.29l-0.001,0.003V0.38h-3.499v20.261
		c0,1.379,0.879,3.568,3.242,3.568c0.31,0,1.25,0,3.27-2.316L57.197,4.39v19.549h3.5V3.88C60.697,0.479,58.698,0.111,57.838,0.111z"
		/>
	<polygon fill="#060508" points="62.812,3.678 76.886,3.678 76.886,23.939 80.386,23.939 80.386,3.678 94.355,3.678 94.355,0.38 
		62.812,0.38 	"/>
	<path fill="#060508" d="M119.83,7.647c0,2.543-0.456,3.288-0.595,3.452c-0.094,0.107-0.636,0.644-2.272,0.644h-16.581V4.267
		c0-0.082,0-0.227,0.006-0.333c0.058-0.006,0.137-0.014,0.246-0.014h16.391c1.432,0,1.988,0.461,2.167,0.662
		C119.426,4.848,119.83,5.597,119.83,7.647L119.83,7.647z M121.601,1.874c-1.453-1.274-3.132-1.381-4.729-1.381h-16.484
		c-0.682,0-1.947,0.111-2.729,0.851c-0.891,0.842-0.891,1.991-0.891,2.677V23.96h3.615v-8.792h17.536c1.31,0,2.58-0.407,3.481-1.12
		c1.94-1.487,2.164-4.12,2.164-5.973C123.563,5.354,123.23,3.256,121.601,1.874z"/>
	<polygon fill="#060508" points="148.504,0.351 138.675,16.123 128.049,0.443 127.988,0.351 123.778,0.351 136.585,19.417 
		133.732,23.939 138.092,23.939 152.657,0.351 	"/>
	<path fill="#060508" d="M163.021,20.498c-3.134,0-4.599-1.386-5.193-2.217c-1.138-1.571-1.235-3.717-1.235-5.782
		c0-2.297,0.11-4.89,1.401-6.56c1.468-1.901,3.838-2.121,5.49-2.121h16.17V0.38h-16.88c-3.944,0-6.297,1.838-7.351,2.937
		c-2.267,2.429-2.576,5.835-2.576,9.152c0,4.3,0.781,6.833,2.693,8.745c1.243,1.244,3.491,2.726,7.141,2.726h17.313v-3.441H163.021z
		"/>
</g>
<g>
	<path fill="#FFFFFF" d="M179.852,43.541v-6.584c-0.006-0.282-0.051-0.505-0.143-0.666c-0.09-0.161-0.201-0.279-0.33-0.351
		c-0.125-0.072-0.252-0.114-0.371-0.134c-0.119-0.018-0.209-0.025-0.271-0.022c-0.115-0.003-0.236,0.012-0.357,0.039
		c-0.121,0.026-0.24,0.08-0.355,0.154c-0.117,0.074-0.227,0.187-0.328,0.328l-3.414,5.021c-0.031,0.045-0.061,0.091-0.094,0.135
		c-0.031,0.04-0.066,0.065-0.111,0.067c-0.055,0-0.09-0.018-0.102-0.053c-0.012-0.033-0.016-0.085-0.014-0.15l0.072-5.455h-1.693
		v6.671c-0.002,0.104,0.01,0.218,0.033,0.339c0.025,0.123,0.076,0.243,0.15,0.354c0.074,0.114,0.186,0.206,0.334,0.278
		c0.15,0.073,0.348,0.112,0.598,0.113c0.189,0,0.352-0.021,0.48-0.068c0.129-0.045,0.242-0.112,0.34-0.201
		c0.096-0.089,0.191-0.203,0.279-0.338l3.371-4.936c0.059-0.084,0.102-0.138,0.135-0.165c0.031-0.028,0.053-0.039,0.068-0.037
		c0.053,0,0.084,0.019,0.086,0.058c0.006,0.036,0.006,0.085,0,0.145l-0.057,5.457H179.852L179.852,43.541z M164.299,42.237v-4.701
		c0-0.045,0.008-0.088,0.023-0.132c0.021-0.043,0.049-0.087,0.094-0.129c0.029-0.026,0.066-0.047,0.109-0.069
		c0.045-0.021,0.082-0.033,0.121-0.033h1.664c0.25,0.004,0.475,0.041,0.668,0.115c0.195,0.075,0.361,0.179,0.496,0.31
		c0.135,0.13,0.238,0.276,0.313,0.443c0.027,0.063,0.059,0.159,0.092,0.288c0.031,0.124,0.059,0.296,0.076,0.515
		c0.021,0.221,0.033,0.502,0.033,0.847c0,0.38-0.018,0.689-0.045,0.934c-0.031,0.243-0.07,0.437-0.117,0.579
		c-0.049,0.142-0.1,0.251-0.154,0.325c-0.061,0.104-0.152,0.21-0.273,0.318s-0.275,0.2-0.469,0.275
		c-0.191,0.074-0.426,0.114-0.705,0.115H164.299L164.299,42.237z M164.299,43.541h2.143c0.197,0.003,0.414-0.007,0.648-0.027
		s0.475-0.063,0.719-0.133c0.246-0.07,0.48-0.181,0.709-0.33c0.227-0.15,0.432-0.353,0.615-0.61c0.18-0.264,0.313-0.555,0.402-0.873
		c0.086-0.319,0.141-0.65,0.17-0.993c0.025-0.346,0.039-0.688,0.035-1.027c0.004-0.212-0.002-0.439-0.018-0.684
		c-0.012-0.243-0.043-0.494-0.094-0.747s-0.133-0.5-0.242-0.743c-0.111-0.236-0.264-0.458-0.457-0.663
		c-0.186-0.19-0.385-0.343-0.596-0.455c-0.211-0.111-0.416-0.196-0.625-0.253c-0.207-0.054-0.4-0.091-0.582-0.106
		c-0.178-0.018-0.33-0.028-0.455-0.025h-2.676c-0.15-0.003-0.307,0.01-0.479,0.041c-0.17,0.032-0.328,0.099-0.477,0.206
		c-0.066,0.048-0.131,0.111-0.195,0.194c-0.068,0.082-0.125,0.187-0.17,0.309c-0.043,0.123-0.066,0.268-0.068,0.436v8.943h1.693
		v-2.458H164.299z M158.109,40.067v1.767c0.002,0.059-0.002,0.112-0.016,0.164c-0.012,0.053-0.045,0.102-0.102,0.153
		c-0.059,0.04-0.125,0.067-0.191,0.077c-0.07,0.008-0.133,0.013-0.184,0.01h-2.359c-0.109-0.002-0.213-0.027-0.313-0.072
		c-0.096-0.046-0.176-0.1-0.236-0.159c-0.066-0.075-0.115-0.164-0.15-0.266c-0.033-0.103-0.055-0.206-0.066-0.313
		c-0.01-0.104-0.016-0.194-0.016-0.275c0-0.179,0.012-0.33,0.037-0.44c0.021-0.113,0.047-0.201,0.078-0.261
		c0.027-0.061,0.053-0.102,0.074-0.122c0.064-0.082,0.137-0.14,0.219-0.177c0.082-0.038,0.16-0.063,0.232-0.072
		c0.074-0.009,0.129-0.015,0.17-0.012L158.109,40.067L158.109,40.067z M153.289,35.871v1.302h3.777
		c0.09-0.002,0.182,0.006,0.279,0.023c0.098,0.015,0.193,0.047,0.289,0.095c0.094,0.049,0.182,0.118,0.258,0.216
		c0.092,0.115,0.15,0.234,0.18,0.362c0.027,0.123,0.039,0.243,0.037,0.361v0.535h-3.328c-0.135-0.003-0.281,0.005-0.439,0.023
		c-0.152,0.019-0.313,0.058-0.477,0.122c-0.166,0.063-0.328,0.166-0.488,0.303c-0.191,0.17-0.332,0.354-0.426,0.558
		c-0.092,0.203-0.154,0.415-0.184,0.637c-0.029,0.22-0.043,0.446-0.043,0.672c0,0.145,0.008,0.308,0.02,0.488
		c0.01,0.183,0.041,0.37,0.08,0.563c0.043,0.197,0.111,0.383,0.201,0.561c0.088,0.178,0.211,0.339,0.365,0.473
		c0.148,0.123,0.299,0.212,0.463,0.265c0.156,0.053,0.316,0.085,0.475,0.097c0.16,0.013,0.311,0.019,0.453,0.016h3.66
		c0.123,0,0.246-0.005,0.373-0.018c0.129-0.015,0.248-0.044,0.367-0.087c0.117-0.043,0.225-0.111,0.316-0.201
		c0.088-0.094,0.156-0.198,0.201-0.315c0.041-0.118,0.072-0.234,0.086-0.352c0.01-0.116,0.018-0.222,0.016-0.315v-3.979
		c-0.002-0.43-0.057-0.796-0.162-1.1c-0.104-0.308-0.238-0.543-0.402-0.709c-0.178-0.185-0.404-0.329-0.682-0.433
		c-0.277-0.106-0.578-0.159-0.908-0.161L153.289,35.871L153.289,35.871z M150.85,35.871h-1.723l-2.59,5.816l-2.447-5.816h-1.793
		l3.416,7.641L144.539,46h1.723L150.85,35.871L150.85,35.871z M140.418,43.541v-1.304h-2.75c-0.24,0.006-0.482-0.012-0.729-0.046
		c-0.246-0.033-0.477-0.109-0.686-0.227c-0.211-0.114-0.383-0.293-0.51-0.537c-0.066-0.139-0.117-0.304-0.154-0.491
		c-0.035-0.19-0.061-0.385-0.072-0.58c-0.014-0.193-0.02-0.366-0.02-0.521c0-0.061,0-0.148,0.006-0.268
		c0.002-0.115,0.006-0.248,0.016-0.392c0.01-0.145,0.023-0.284,0.039-0.423c0.018-0.14,0.041-0.261,0.07-0.365
		c0.061-0.219,0.166-0.421,0.318-0.604c0.15-0.184,0.352-0.33,0.607-0.439c0.258-0.111,0.576-0.168,0.955-0.17h2.734v-1.303h-3.283
		c-0.344,0.001-0.645,0.029-0.902,0.083s-0.48,0.124-0.666,0.21s-0.342,0.174-0.471,0.269c-0.125,0.094-0.227,0.181-0.305,0.262
		c-0.213,0.223-0.377,0.467-0.498,0.732c-0.119,0.263-0.205,0.535-0.258,0.812c-0.053,0.28-0.086,0.553-0.096,0.82
		c-0.016,0.269-0.021,0.52-0.02,0.747c-0.002,0.362,0.01,0.71,0.039,1.04c0.029,0.329,0.096,0.643,0.193,0.935
		c0.1,0.297,0.254,0.569,0.465,0.819c0.174,0.205,0.363,0.368,0.566,0.494c0.205,0.124,0.41,0.22,0.619,0.284
		c0.207,0.065,0.406,0.109,0.596,0.131s0.357,0.034,0.504,0.031H140.418L140.418,43.541z M125.707,38.968
		c0.002-0.169,0.008-0.328,0.018-0.48c0.01-0.151,0.039-0.296,0.088-0.434c0.047-0.14,0.127-0.272,0.24-0.403
		c0.158-0.17,0.332-0.291,0.523-0.364c0.191-0.069,0.383-0.113,0.57-0.129c0.191-0.012,0.361-0.018,0.514-0.014
		c0.16-0.003,0.324,0.005,0.494,0.02c0.168,0.015,0.336,0.047,0.496,0.098c0.164,0.05,0.316,0.127,0.455,0.23
		c0.086,0.063,0.162,0.145,0.236,0.244c0.076,0.098,0.137,0.215,0.184,0.347c0.047,0.13,0.074,0.277,0.074,0.437
		c0.002,0.069-0.006,0.137-0.025,0.207c-0.016,0.067-0.053,0.123-0.105,0.169c-0.055,0.045-0.139,0.071-0.246,0.072L125.707,38.968
		L125.707,38.968z M131.105,43.541v-1.304h-3.748c-0.158,0.004-0.318-0.007-0.473-0.026c-0.16-0.021-0.313-0.061-0.453-0.12
		c-0.143-0.06-0.27-0.152-0.379-0.275c-0.107-0.121-0.189-0.284-0.246-0.489c-0.018-0.08-0.035-0.182-0.051-0.304
		s-0.027-0.25-0.035-0.385c-0.01-0.131-0.014-0.256-0.014-0.369h4.457c0.152,0.003,0.299-0.016,0.439-0.058
		c0.139-0.041,0.27-0.117,0.385-0.231c0.104-0.107,0.184-0.227,0.236-0.354c0.051-0.131,0.088-0.264,0.102-0.4
		c0.018-0.137,0.027-0.273,0.023-0.402c0.004-0.326-0.023-0.642-0.082-0.95c-0.057-0.311-0.166-0.596-0.322-0.859
		c-0.156-0.262-0.383-0.49-0.682-0.68c-0.236-0.148-0.494-0.256-0.771-0.33c-0.275-0.068-0.564-0.114-0.861-0.134
		c-0.297-0.021-0.598-0.032-0.898-0.029c-0.184-0.003-0.395,0.004-0.635,0.013c-0.242,0.009-0.49,0.034-0.754,0.078
		c-0.264,0.043-0.521,0.114-0.777,0.217c-0.252,0.099-0.486,0.238-0.699,0.417c-0.207,0.181-0.373,0.384-0.496,0.605
		c-0.125,0.225-0.215,0.469-0.273,0.735c-0.061,0.265-0.1,0.557-0.117,0.866c-0.016,0.313-0.027,0.646-0.025,1.006
		c-0.002,0.339,0.01,0.678,0.031,1.013s0.074,0.656,0.152,0.959c0.076,0.305,0.199,0.578,0.367,0.821
		c0.158,0.222,0.336,0.397,0.523,0.531c0.189,0.128,0.387,0.225,0.592,0.288c0.209,0.065,0.412,0.105,0.623,0.123
		c0.207,0.021,0.41,0.029,0.605,0.027H131.105L131.105,43.541z M121.557,43.541v-1.304h-2.75c-0.238,0.006-0.482-0.012-0.73-0.046
		c-0.246-0.033-0.475-0.109-0.686-0.227c-0.207-0.114-0.379-0.293-0.508-0.537c-0.068-0.139-0.117-0.304-0.154-0.491
		c-0.035-0.19-0.059-0.385-0.072-0.58c-0.014-0.193-0.018-0.366-0.018-0.521c0-0.061,0-0.148,0.004-0.268
		c0.002-0.115,0.006-0.248,0.016-0.392c0.012-0.145,0.023-0.284,0.039-0.423c0.018-0.14,0.041-0.261,0.07-0.365
		c0.061-0.219,0.166-0.421,0.318-0.604c0.15-0.184,0.352-0.33,0.607-0.439c0.258-0.111,0.576-0.168,0.957-0.17h2.732v-1.303H118.1
		c-0.344,0.001-0.645,0.029-0.902,0.083s-0.48,0.124-0.666,0.21s-0.344,0.174-0.471,0.269c-0.125,0.094-0.227,0.181-0.307,0.262
		c-0.211,0.223-0.377,0.467-0.496,0.732c-0.119,0.263-0.205,0.535-0.26,0.812c-0.051,0.28-0.084,0.553-0.094,0.82
		c-0.016,0.269-0.02,0.52-0.018,0.747c-0.002,0.362,0.008,0.71,0.039,1.04c0.027,0.329,0.094,0.643,0.193,0.935
		c0.098,0.297,0.252,0.569,0.463,0.819c0.176,0.205,0.363,0.368,0.568,0.494c0.203,0.124,0.41,0.22,0.617,0.284
		c0.207,0.065,0.406,0.109,0.596,0.131s0.357,0.034,0.504,0.031H121.557L121.557,43.541z M113.299,43.541l-3.271-3.417
		c-0.039-0.041-0.078-0.092-0.121-0.152c-0.043-0.063-0.078-0.13-0.107-0.197c-0.029-0.069-0.045-0.129-0.047-0.185
		c0.004-0.08,0.025-0.163,0.066-0.241c0.041-0.079,0.09-0.15,0.145-0.217s0.105-0.12,0.152-0.164l2.908-3.097h-2.01l-2.447,2.72
		c-0.074,0.082-0.154,0.176-0.234,0.283c-0.08,0.103-0.152,0.217-0.209,0.337c-0.059,0.124-0.09,0.249-0.092,0.379
		c0.002,0.132,0.025,0.253,0.074,0.364c0.047,0.114,0.104,0.214,0.17,0.304s0.129,0.167,0.189,0.229l2.793,3.054H113.299
		L113.299,43.541z M107.697,43.541v-7.67h-1.691v7.67H107.697L107.697,43.541z M101.508,40.067v1.767
		c0.002,0.059-0.002,0.112-0.014,0.164c-0.012,0.053-0.045,0.102-0.102,0.153c-0.061,0.04-0.125,0.067-0.193,0.077
		c-0.068,0.008-0.129,0.013-0.184,0.01h-2.357c-0.111-0.002-0.215-0.027-0.314-0.072c-0.096-0.046-0.176-0.1-0.236-0.159
		c-0.066-0.075-0.115-0.164-0.148-0.266c-0.035-0.103-0.057-0.206-0.066-0.313c-0.012-0.104-0.016-0.194-0.016-0.275
		c0-0.179,0.012-0.33,0.037-0.44c0.02-0.113,0.047-0.201,0.076-0.261s0.053-0.102,0.074-0.122c0.066-0.082,0.137-0.14,0.221-0.177
		c0.082-0.038,0.158-0.063,0.23-0.072c0.074-0.009,0.131-0.015,0.172-0.012L101.508,40.067L101.508,40.067z M96.689,35.871v1.302
		h3.777c0.088-0.002,0.182,0.006,0.277,0.023c0.098,0.015,0.195,0.047,0.289,0.095c0.094,0.049,0.182,0.118,0.258,0.216
		c0.094,0.115,0.152,0.234,0.18,0.362c0.027,0.123,0.039,0.243,0.037,0.361v0.535h-3.326c-0.137-0.003-0.283,0.005-0.439,0.023
		c-0.154,0.019-0.314,0.058-0.479,0.122c-0.164,0.063-0.328,0.166-0.486,0.303c-0.191,0.17-0.334,0.354-0.428,0.558
		c-0.09,0.203-0.154,0.415-0.182,0.637c-0.029,0.22-0.045,0.446-0.043,0.672c-0.002,0.145,0.006,0.308,0.016,0.488
		c0.014,0.183,0.043,0.37,0.084,0.563c0.043,0.197,0.111,0.383,0.199,0.561c0.09,0.178,0.213,0.339,0.367,0.473
		c0.146,0.123,0.299,0.212,0.461,0.265c0.158,0.053,0.318,0.085,0.477,0.097c0.16,0.013,0.309,0.019,0.451,0.016h3.662
		c0.121,0,0.244-0.005,0.373-0.018c0.129-0.015,0.248-0.044,0.367-0.087c0.117-0.043,0.223-0.111,0.314-0.201
		c0.09-0.094,0.156-0.198,0.199-0.315c0.045-0.118,0.074-0.234,0.09-0.352c0.01-0.116,0.018-0.222,0.016-0.315v-3.979
		c-0.002-0.43-0.059-0.796-0.16-1.1c-0.107-0.308-0.24-0.543-0.404-0.709c-0.18-0.185-0.406-0.329-0.684-0.433
		c-0.277-0.106-0.578-0.159-0.908-0.161L96.689,35.871L96.689,35.871z M88.459,40.067v1.767c0.003,0.059-0.002,0.112-0.013,0.164
		c-0.013,0.053-0.046,0.102-0.102,0.153c-0.061,0.04-0.126,0.067-0.193,0.077c-0.07,0.008-0.131,0.013-0.183,0.01h-2.359
		c-0.111-0.002-0.214-0.027-0.313-0.072c-0.096-0.046-0.176-0.1-0.236-0.159c-0.066-0.075-0.116-0.164-0.15-0.266
		c-0.034-0.103-0.055-0.206-0.068-0.313c-0.008-0.104-0.014-0.194-0.014-0.275c0-0.179,0.013-0.33,0.037-0.44
		c0.021-0.113,0.048-0.201,0.078-0.261c0.029-0.061,0.053-0.102,0.075-0.122c0.065-0.082,0.138-0.14,0.219-0.177
		c0.083-0.038,0.16-0.063,0.231-0.072c0.076-0.009,0.13-0.015,0.172-0.012L88.459,40.067L88.459,40.067z M83.642,35.871v1.302h3.776
		c0.089-0.002,0.181,0.006,0.277,0.023c0.097,0.015,0.196,0.047,0.29,0.095c0.094,0.049,0.18,0.118,0.257,0.216
		c0.092,0.115,0.152,0.234,0.178,0.362c0.029,0.123,0.042,0.243,0.039,0.361v0.535h-3.328c-0.135-0.003-0.281,0.005-0.439,0.023
		c-0.154,0.019-0.313,0.058-0.478,0.122c-0.164,0.063-0.328,0.166-0.486,0.303c-0.191,0.17-0.333,0.354-0.428,0.558
		c-0.091,0.203-0.154,0.415-0.183,0.637c-0.029,0.22-0.044,0.446-0.042,0.672c-0.002,0.145,0.004,0.308,0.018,0.488
		c0.012,0.183,0.041,0.37,0.082,0.563c0.043,0.197,0.11,0.383,0.199,0.561s0.213,0.339,0.367,0.473
		c0.148,0.123,0.299,0.212,0.46,0.265c0.159,0.053,0.319,0.085,0.478,0.097c0.159,0.013,0.309,0.019,0.451,0.016h3.661
		c0.123,0,0.246-0.005,0.374-0.018c0.127-0.015,0.247-0.044,0.367-0.087c0.117-0.043,0.223-0.111,0.316-0.201
		c0.089-0.094,0.155-0.198,0.2-0.315c0.043-0.118,0.072-0.234,0.086-0.352c0.013-0.116,0.02-0.222,0.018-0.315v-3.979
		c-0.004-0.43-0.059-0.796-0.161-1.1c-0.107-0.308-0.24-0.543-0.403-0.709c-0.179-0.185-0.405-0.329-0.683-0.433
		c-0.277-0.106-0.579-0.159-0.909-0.161L83.642,35.871L83.642,35.871z M78.175,43.541v-6.368h2.88v-1.302h-7.453v1.302h2.88v6.368
		H78.175z"/>
	<path fill="#FFFFFF" d="M67.864,43.54v-6.585c-0.005-0.282-0.051-0.504-0.143-0.666c-0.088-0.162-0.199-0.276-0.327-0.349
		c-0.129-0.073-0.253-0.116-0.372-0.136c-0.121-0.017-0.21-0.023-0.273-0.021c-0.116-0.003-0.236,0.012-0.357,0.038
		c-0.12,0.026-0.241,0.08-0.356,0.154c-0.115,0.073-0.227,0.186-0.328,0.328l-3.416,5.021c-0.028,0.046-0.058,0.092-0.091,0.134
		c-0.031,0.042-0.068,0.066-0.111,0.07c-0.056,0-0.089-0.018-0.101-0.055c-0.012-0.033-0.018-0.083-0.015-0.149l0.072-5.455h-1.693
		v6.67c-0.002,0.104,0.009,0.219,0.034,0.341c0.023,0.122,0.074,0.241,0.149,0.354c0.075,0.115,0.186,0.206,0.334,0.278
		c0.15,0.072,0.348,0.112,0.597,0.113c0.19,0,0.352-0.022,0.482-0.068c0.128-0.045,0.241-0.112,0.337-0.2
		c0.097-0.09,0.19-0.204,0.28-0.339l3.372-4.935c0.058-0.084,0.102-0.141,0.134-0.167c0.032-0.027,0.053-0.039,0.068-0.035
		c0.056,0,0.084,0.019,0.086,0.058c0.005,0.034,0.005,0.083,0,0.145l-0.058,5.455L67.864,43.54L67.864,43.54z M55.249,43.54v-6.367
		h2.879V35.87h-7.451v1.303h2.879v6.367H55.249L55.249,43.54z M43.012,38.968c0.001-0.17,0.009-0.329,0.019-0.48
		c0.009-0.153,0.039-0.297,0.086-0.435c0.049-0.141,0.127-0.271,0.241-0.403c0.158-0.172,0.331-0.291,0.524-0.364
		c0.189-0.07,0.38-0.112,0.569-0.127c0.19-0.013,0.362-0.021,0.514-0.016c0.161-0.002,0.325,0.004,0.494,0.02
		c0.169,0.015,0.336,0.046,0.497,0.098c0.164,0.05,0.316,0.126,0.455,0.231c0.085,0.062,0.164,0.145,0.238,0.243
		c0.074,0.098,0.135,0.216,0.184,0.348c0.045,0.131,0.071,0.275,0.071,0.436c0.003,0.069-0.004,0.138-0.024,0.207
		c-0.016,0.067-0.052,0.123-0.105,0.17c-0.056,0.045-0.138,0.068-0.246,0.072L43.012,38.968L43.012,38.968z M48.409,43.54v-1.303
		h-3.749c-0.156,0.003-0.316-0.009-0.472-0.027c-0.16-0.02-0.312-0.06-0.454-0.12c-0.143-0.061-0.268-0.151-0.377-0.275
		c-0.108-0.12-0.19-0.284-0.246-0.489c-0.019-0.079-0.037-0.18-0.053-0.303c-0.014-0.122-0.026-0.25-0.034-0.385
		c-0.009-0.133-0.013-0.256-0.013-0.369h4.457c0.151,0.003,0.299-0.016,0.439-0.058c0.139-0.041,0.27-0.117,0.385-0.231
		c0.104-0.109,0.184-0.227,0.237-0.354c0.049-0.131,0.087-0.263,0.101-0.399c0.018-0.138,0.026-0.273,0.025-0.403
		c0.001-0.326-0.025-0.641-0.082-0.95c-0.059-0.311-0.168-0.596-0.324-0.858c-0.157-0.263-0.383-0.49-0.68-0.682
		c-0.239-0.146-0.495-0.255-0.772-0.329c-0.277-0.068-0.564-0.113-0.864-0.134c-0.296-0.021-0.596-0.031-0.898-0.028
		c-0.182-0.003-0.395,0.002-0.633,0.013c-0.241,0.008-0.492,0.032-0.756,0.075c-0.263,0.045-0.52,0.117-0.777,0.219
		c-0.252,0.1-0.486,0.238-0.698,0.417c-0.208,0.181-0.374,0.384-0.498,0.605c-0.122,0.224-0.214,0.468-0.272,0.735
		c-0.061,0.266-0.1,0.556-0.118,0.865c-0.017,0.314-0.027,0.648-0.024,1.006c-0.003,0.34,0.008,0.678,0.032,1.014
		c0.021,0.335,0.072,0.654,0.151,0.959c0.078,0.305,0.2,0.577,0.367,0.821c0.159,0.221,0.335,0.397,0.525,0.53
		c0.188,0.13,0.385,0.226,0.591,0.288c0.207,0.066,0.413,0.107,0.622,0.124c0.208,0.02,0.41,0.03,0.606,0.027H48.409L48.409,43.54z
		 M27.3,43.54h1.998l2.503-3.039c0.065-0.072,0.131-0.154,0.201-0.244c0.066-0.091,0.125-0.188,0.172-0.294
		c0.049-0.103,0.073-0.214,0.076-0.33c-0.003-0.111-0.029-0.228-0.083-0.345c-0.05-0.118-0.117-0.234-0.197-0.353
		c-0.082-0.118-0.167-0.234-0.255-0.345l-2.185-2.721H27.56l2.634,3.141c0.042,0.045,0.085,0.104,0.135,0.177
		c0.048,0.069,0.091,0.142,0.127,0.212c0.037,0.072,0.053,0.13,0.056,0.175c-0.003,0.051-0.022,0.115-0.062,0.188
		c-0.039,0.079-0.081,0.153-0.13,0.228c-0.047,0.073-0.092,0.132-0.128,0.178L27.3,43.54L27.3,43.54z M39.528,43.54l-2.894-3.373
		c-0.041-0.046-0.084-0.103-0.136-0.176c-0.047-0.071-0.089-0.146-0.125-0.222c-0.037-0.074-0.056-0.14-0.059-0.195
		c-0.001-0.024,0.005-0.057,0.02-0.103c0.012-0.046,0.044-0.109,0.087-0.185c0.045-0.073,0.118-0.167,0.213-0.277l2.618-3.14h-1.967
		l-2.17,2.721c-0.09,0.11-0.174,0.226-0.254,0.344c-0.082,0.119-0.149,0.235-0.201,0.353c-0.052,0.117-0.079,0.234-0.081,0.345
		c0.002,0.116,0.026,0.228,0.074,0.33c0.048,0.107,0.107,0.204,0.173,0.295c0.07,0.09,0.135,0.171,0.201,0.243l2.503,3.039
		L39.528,43.54L39.528,43.54z M34.231,43.54v-7.67h-1.634v7.67H34.231L34.231,43.54z M21.617,37.476
		c0.017-0.045,0.039-0.091,0.069-0.134c0.029-0.042,0.062-0.064,0.09-0.066c0.043,0.002,0.074,0.027,0.094,0.074
		c0.021,0.043,0.039,0.085,0.051,0.127l1.838,4.761h-3.965L21.617,37.476L21.617,37.476z M18.144,42.237h-0.695v1.303h8.639v-1.303
		h-0.681l-2.401-5.701c-0.051-0.128-0.122-0.25-0.211-0.361c-0.088-0.115-0.215-0.208-0.376-0.281
		c-0.161-0.071-0.376-0.108-0.644-0.11c-0.258,0.002-0.467,0.035-0.632,0.101c-0.161,0.067-0.292,0.158-0.386,0.271
		c-0.097,0.112-0.171,0.237-0.227,0.381L18.144,42.237L18.144,42.237z M13.675,40.066v1.766c0.003,0.058-0.001,0.114-0.014,0.163
		c-0.012,0.054-0.045,0.104-0.101,0.155c-0.06,0.04-0.126,0.068-0.193,0.077c-0.07,0.006-0.13,0.013-0.183,0.01h-2.359
		c-0.111-0.004-0.214-0.027-0.313-0.071c-0.097-0.046-0.176-0.1-0.237-0.16c-0.066-0.076-0.116-0.164-0.149-0.265
		c-0.034-0.104-0.056-0.208-0.068-0.314c-0.009-0.104-0.014-0.194-0.014-0.275c0-0.181,0.012-0.33,0.037-0.441
		c0.021-0.112,0.048-0.199,0.077-0.26c0.029-0.06,0.053-0.103,0.075-0.124c0.065-0.08,0.137-0.14,0.22-0.175
		c0.081-0.038,0.159-0.063,0.231-0.072c0.075-0.01,0.13-0.015,0.17-0.012L13.675,40.066L13.675,40.066z M8.858,35.87v1.303h3.777
		c0.089-0.003,0.18,0.005,0.277,0.021c0.098,0.018,0.195,0.049,0.29,0.097c0.094,0.05,0.18,0.119,0.258,0.216
		c0.092,0.116,0.152,0.236,0.178,0.362c0.029,0.122,0.041,0.242,0.038,0.361v0.534h-3.328c-0.135-0.001-0.282,0.007-0.438,0.025
		c-0.155,0.017-0.314,0.058-0.478,0.121c-0.164,0.065-0.328,0.165-0.487,0.305c-0.191,0.167-0.333,0.353-0.428,0.556
		c-0.092,0.203-0.154,0.415-0.183,0.636c-0.029,0.22-0.044,0.447-0.041,0.673c-0.003,0.143,0.004,0.308,0.017,0.488
		c0.013,0.183,0.042,0.371,0.082,0.564c0.044,0.195,0.111,0.381,0.2,0.559c0.09,0.179,0.213,0.339,0.368,0.473
		c0.146,0.123,0.298,0.213,0.46,0.267c0.159,0.052,0.318,0.084,0.478,0.096c0.159,0.013,0.31,0.019,0.451,0.016h3.661
		c0.123,0,0.246-0.005,0.374-0.018c0.128-0.015,0.249-0.044,0.367-0.086c0.118-0.044,0.224-0.113,0.316-0.202
		c0.089-0.094,0.157-0.199,0.2-0.314c0.043-0.118,0.072-0.234,0.086-0.353c0.013-0.116,0.02-0.222,0.017-0.314v-3.981
		c-0.002-0.431-0.058-0.797-0.162-1.1c-0.105-0.307-0.238-0.543-0.402-0.709c-0.179-0.185-0.406-0.33-0.683-0.432
		c-0.277-0.106-0.579-0.16-0.909-0.162H8.858L8.858,35.87z M1.842,43.54v-5.759c-0.001-0.095,0-0.18,0.01-0.255
		c0.01-0.074,0.044-0.145,0.106-0.209c0.036-0.039,0.087-0.072,0.148-0.099c0.06-0.03,0.127-0.046,0.2-0.046H6.56V35.87H1.221
		c-0.106-0.002-0.217,0.007-0.326,0.024c-0.112,0.019-0.218,0.058-0.319,0.115c-0.098,0.06-0.19,0.147-0.268,0.265
		c-0.078,0.125-0.122,0.26-0.139,0.407c-0.017,0.143-0.023,0.293-0.02,0.447v6.412L1.842,43.54L1.842,43.54z"/>
</g>
</svg>
