<?xml version="1.0" encoding="utf-8"?>
<!-- Generator: Adobe Illustrator 16.2.0, SVG Export Plug-In . SVG Version: 6.00 Build 0)  -->
<!DOCTYPE svg PUBLIC "-//W3C//DTD SVG 1.1//EN" "http://www.w3.org/Graphics/SVG/1.1/DTD/svg11.dtd">
<svg version="1.1" id="Layer_1" xmlns="http://www.w3.org/2000/svg" xmlns:xlink="http://www.w3.org/1999/xlink" x="0px" y="0px"
	 width="165px" height="165px" viewBox="0 0 165 165" enable-background="new 0 0 165 165" xml:space="preserve">
<path fill="#CB5599" d="M82.719,13.173l0.208,0.003c0.424,0.001,0.846,0.006,1.27,0.016c0.201,0.003,0.404,0.009,0.604,0.014
	c0.325,0.01,0.648,0.022,0.975,0.037c0.309,0.014,0.611,0.028,0.918,0.045c0.193,0.011,0.388,0.024,0.58,0.037
	c0.416,0.027,0.832,0.056,1.248,0.091l0.168,0.015c8.402,0.713,16.379,2.912,23.668,6.335c0.174,0.081,0.349,0.161,0.522,0.244
	c0.179,0.086,0.354,0.172,0.531,0.26c7.239,3.537,13.952,8.379,19.772,14.485l0.09,0.091c0.285,0.302,0.569,0.608,0.854,0.918
	l0.406,0.444c0.202,0.224,0.403,0.453,0.604,0.681c0.213,0.242,0.424,0.485,0.635,0.731c0.134,0.155,0.265,0.313,0.396,0.469
	c0.27,0.321,0.537,0.646,0.801,0.972l0.137,0.164l0.117,0.149c0.305,0.381,0.605,0.767,0.904,1.155l0.155,0.2
	c0.312,0.41,0.616,0.823,0.919,1.24l0.133,0.182c0.305,0.422,0.604,0.847,0.9,1.276l0.111,0.161c0.297,0.435,0.59,0.874,0.881,1.315
	l0.097,0.149c0.284,0.442,0.567,0.887,0.843,1.335l0.096,0.151c0.262,0.427,0.519,0.857,0.771,1.29l0.132,0.226
	c0.245,0.424,0.485,0.854,0.724,1.284l0.131,0.231c0.231,0.425,0.457,0.855,0.683,1.285l0.13,0.247
	c0.216,0.418,0.425,0.841,0.63,1.263c0.048,0.096,0.097,0.19,0.144,0.287c0.221,0.457,0.436,0.917,0.646,1.38l0.079,0.172
	c0.224,0.491,0.438,0.983,0.649,1.479l0.041,0.097c0.192,0.452,0.375,0.909,0.56,1.365l0.091,0.223l0.008,0.015
	c0.205,0.526,0.406,1.056,0.603,1.587l0.003,0.007c0.193,0.533,0.382,1.067,0.564,1.605l0.002,0.007
	c0.182,0.536,0.355,1.074,0.523,1.615l0.005,0.016l0.068,0.223c0.146,0.474,0.288,0.947,0.423,1.421l0.04,0.148
	c0.14,0.498,0.276,0.997,0.405,1.496c0.033,0.136,0.063,0.273,0.101,0.408c0.104,0.426,0.211,0.854,0.312,1.282l0.043,0.188
	c0.113,0.5,0.223,1,0.324,1.5l0.043,0.211c0.1,0.497,0.194,0.993,0.285,1.489l0.041,0.243c0.086,0.491,0.168,0.98,0.243,1.472
	l0.034,0.241c0.076,0.503,0.148,1.007,0.212,1.51l0.019,0.146c0.066,0.534,0.127,1.067,0.184,1.602l0.013,0.144
	c0.056,0.54,0.103,1.08,0.146,1.62l0.008,0.129c0.042,0.538,0.076,1.074,0.104,1.611l0.01,0.218c0.024,0.511,0.045,1.02,0.061,1.532
	l0.006,0.284c0.01,0.479,0.018,0.956,0.02,1.434l0.002,0.203l-0.002,0.219c-0.002,0.42-0.01,0.839-0.018,1.258l-0.017,0.605
	c-0.011,0.323-0.022,0.646-0.035,0.971c-0.015,0.309-0.026,0.615-0.044,0.923c-0.012,0.19-0.023,0.38-0.037,0.569
	c-0.027,0.422-0.057,0.84-0.093,1.26l-0.013,0.154c-0.711,8.41-2.914,16.396-6.342,23.689c-0.078,0.168-0.154,0.335-0.232,0.499
	c-0.092,0.188-0.184,0.376-0.276,0.563c-3.537,7.229-8.373,13.938-14.474,19.752l-0.092,0.09c-0.303,0.285-0.61,0.57-0.92,0.854
	l-0.443,0.406c-0.221,0.196-0.441,0.394-0.665,0.592c-0.255,0.222-0.505,0.44-0.761,0.661l-0.436,0.363
	c-0.333,0.279-0.663,0.556-1,0.828l-0.156,0.127l-0.142,0.113c-0.384,0.307-0.767,0.604-1.155,0.902l-0.211,0.164
	c-0.41,0.313-0.822,0.618-1.242,0.925l-0.164,0.118c-0.435,0.313-0.871,0.624-1.312,0.926l-0.125,0.085
	c-0.435,0.3-0.871,0.589-1.313,0.878l-0.166,0.111c-0.451,0.289-0.902,0.575-1.358,0.855l-0.112,0.071
	c-0.441,0.271-0.889,0.536-1.337,0.8l-0.181,0.104c-0.418,0.241-0.842,0.478-1.264,0.713l-0.268,0.146
	c-0.422,0.232-0.85,0.457-1.275,0.682l-0.248,0.131c-0.418,0.215-0.84,0.425-1.263,0.63l-0.288,0.144
	c-0.449,0.219-0.904,0.431-1.357,0.637l-0.196,0.09c-0.474,0.214-0.948,0.421-1.429,0.627l-0.146,0.063
	c-0.403,0.174-0.812,0.336-1.218,0.5c-0.125,0.051-0.244,0.103-0.369,0.152l-0.016,0.006c-0.525,0.205-1.055,0.406-1.588,0.603
	l-0.006,0.004c-0.533,0.192-1.067,0.381-1.606,0.563l-0.007,0.002c-0.535,0.183-1.073,0.356-1.616,0.522
	c-0.276,0.089-0.56,0.169-0.841,0.253c-0.27,0.081-0.539,0.164-0.811,0.242c-0.117,0.035-0.24,0.063-0.363,0.098
	c-0.434,0.122-0.864,0.239-1.301,0.354l-0.215,0.053c-0.486,0.123-0.972,0.243-1.459,0.354l-0.242,0.055
	c-0.48,0.111-0.965,0.215-1.445,0.314l-0.262,0.051c-0.476,0.099-0.955,0.188-1.435,0.275l-0.31,0.051
	c-0.469,0.084-0.94,0.164-1.412,0.235l-0.258,0.035c-0.498,0.075-0.996,0.147-1.492,0.211l-0.16,0.021
	c-0.528,0.065-1.059,0.127-1.588,0.182l-0.156,0.015c-0.535,0.054-1.071,0.099-1.605,0.142l-0.141,0.01
	c-0.534,0.041-1.07,0.076-1.605,0.104l-0.221,0.01c-0.512,0.025-1.025,0.045-1.539,0.061l-0.254,0.006
	c-0.492,0.01-0.982,0.02-1.473,0.021h-0.184l-0.208-0.002c-0.423,0-0.846-0.01-1.271-0.018c-0.201-0.003-0.401-0.008-0.603-0.018
	c-0.325-0.008-0.649-0.021-0.975-0.034c-0.306-0.015-0.612-0.024-0.917-0.044c-0.194-0.012-0.388-0.025-0.582-0.037
	c-0.417-0.028-0.833-0.057-1.249-0.09l-0.167-0.016c-8.402-0.713-16.378-2.914-23.667-6.336c-0.174-0.08-0.349-0.16-0.521-0.242
	c-0.179-0.086-0.354-0.176-0.531-0.262c-7.24-3.535-13.954-8.379-19.775-14.484l-0.088-0.094c-0.288-0.301-0.572-0.607-0.855-0.916
	l-0.406-0.445c-0.202-0.226-0.403-0.45-0.603-0.68c-0.213-0.242-0.426-0.483-0.634-0.729c-0.134-0.155-0.265-0.313-0.398-0.47
	c-0.27-0.322-0.539-0.646-0.803-0.974l-0.135-0.165l-0.164-0.208c-0.198-0.245-0.394-0.491-0.586-0.743l-0.059-0.074
	c-0.441-0.567-0.873-1.146-1.296-1.729l-0.158-0.215c-0.193-0.269-0.384-0.537-0.574-0.81l-0.231-0.332
	c-0.576-0.836-1.134-1.681-1.675-2.541l-0.302-0.48c-0.146-0.24-0.292-0.477-0.436-0.716c-0.124-0.203-0.244-0.41-0.364-0.614
	c-0.194-0.332-0.385-0.664-0.574-0.998c-0.139-0.246-0.277-0.488-0.412-0.736l-0.323-0.592c-0.145-0.271-0.287-0.541-0.429-0.813
	c-0.081-0.157-0.164-0.313-0.245-0.472c-0.211-0.412-0.416-0.828-0.616-1.24l-0.225-0.469c-0.146-0.308-0.289-0.612-0.429-0.922
	c-0.073-0.158-0.147-0.315-0.219-0.476c-0.189-0.425-0.375-0.849-0.557-1.274c-0.062-0.146-0.124-0.293-0.183-0.439
	c-0.131-0.313-0.261-0.631-0.388-0.947l-0.203-0.512c-0.171-0.436-0.337-0.873-0.499-1.313l-0.122-0.339
	c-0.131-0.361-0.259-0.725-0.384-1.091l-0.164-0.481c-0.144-0.432-0.286-0.863-0.422-1.299l-0.128-0.424
	c-0.107-0.35-0.209-0.695-0.313-1.047l-0.156-0.548c-0.108-0.39-0.214-0.775-0.315-1.166l-0.145-0.566
	c-0.09-0.36-0.179-0.722-0.264-1.082l-0.116-0.502c-0.107-0.47-0.211-0.94-0.308-1.411l-0.054-0.273
	c-0.083-0.413-0.162-0.827-0.239-1.241l-0.083-0.462c-0.084-0.486-0.167-0.973-0.241-1.457L13.7,93.436
	c-0.069-0.467-0.135-0.934-0.195-1.396l-0.039-0.301c-0.066-0.529-0.127-1.059-0.182-1.59l-0.014-0.137
	c-0.052-0.518-0.097-1.035-0.136-1.553l-0.015-0.184c-0.041-0.541-0.076-1.086-0.104-1.627l-0.012-0.242
	c-0.024-0.502-0.043-1.004-0.056-1.506l-0.007-0.178c-0.013-0.521-0.019-1.043-0.019-1.563l-0.002-0.187l0.003-0.403l0.003-0.437
	c0.004-0.288,0.01-0.575,0.017-0.863l0.004-0.172c0.401-15.234,5.682-29.25,14.339-40.543l-0.01-0.005
	c3.332-4.351,7.233-8.377,11.693-11.966l0.205-0.16c0.357-0.286,0.717-0.568,1.08-0.846c0.135-0.104,0.271-0.205,0.406-0.308
	c0.293-0.221,0.588-0.44,0.885-0.658l0.412-0.301c0.375-0.272,0.756-0.538,1.137-0.8l0.482-0.329
	c0.271-0.184,0.542-0.365,0.814-0.545c0.219-0.144,0.439-0.287,0.66-0.429c0.307-0.197,0.617-0.393,0.927-0.585
	c0.198-0.124,0.397-0.246,0.597-0.367c0.211-0.127,0.424-0.254,0.638-0.38c0.42-0.249,0.843-0.494,1.268-0.733l0.29-0.164
	l0.001,0.001c5.998-3.348,12.348-5.727,18.839-7.161l0.251-0.056c0.502-0.108,1.005-0.211,1.509-0.31l0.015-0.002
	c0.507-0.1,1.016-0.19,1.524-0.278l0.256-0.043l0.043-0.008c0.392-0.065,0.786-0.126,1.179-0.186l0.063-0.01l0.259-0.036
	l0.256-0.038c0.402-0.056,0.804-0.108,1.204-0.157l0.093-0.012l0.26-0.031l0.092-0.011c0.377-0.043,0.755-0.084,1.134-0.122
	l0.623-0.059c0.339-0.031,0.677-0.059,1.016-0.084l0.645-0.046c0.33-0.021,0.659-0.042,0.989-0.059
	c0.257-0.013,0.515-0.025,0.774-0.037c0.258-0.01,0.516-0.02,0.773-0.027c0.319-0.009,0.64-0.017,0.959-0.023
	c0.227-0.004,0.455-0.005,0.682-0.006L82.719,13.173L82.719,13.173z"/>
<path fill="#A82782" d="M82.719,1.525c44.984,0,81.448,36.466,81.448,81.448c0,44.984-36.464,81.449-81.448,81.449
	c-44.983,0-81.448-36.466-81.448-81.449c0-30.602,16.88-57.257,41.833-71.175c2.937,3.817,5.36,7.064,7.357,9.815
	C28.43,33.22,13.406,56.34,13.406,82.973c0,38.28,31.033,69.312,69.313,69.312c38.28,0,69.312-31.032,69.312-69.312
	c0-38.281-31.031-69.313-69.312-69.313c-5.158,0-10.183,0.566-15.019,1.637L63.336,3.853C69.547,2.334,76.039,1.525,82.719,1.525
	L82.719,1.525z"/>
<polygon fill="#A82782" points="26.968,9.152 55.288,9.223 47.488,36.835 "/>
<g>
	<path fill="#FFFFFF" d="M42.843,126.831H41.38v-3.619h-3.777v3.619h-1.464v-8.185h1.464v3.338h3.777v-3.338h1.463V126.831z"/>
	<path fill="#FFFFFF" d="M48.004,118.443c0.587,0,1.083,0.076,1.487,0.229c0.404,0.153,0.729,0.367,0.976,0.645
		c0.246,0.279,0.422,0.609,0.527,0.992s0.158,0.805,0.158,1.268v5.113c-0.126,0.021-0.302,0.051-0.527,0.088
		c-0.226,0.035-0.48,0.07-0.763,0.102c-0.283,0.032-0.59,0.061-0.921,0.087c-0.33,0.026-0.658,0.039-0.983,0.039
		c-0.462,0-0.887-0.047-1.274-0.142c-0.389-0.094-0.724-0.244-1.007-0.448c-0.283-0.205-0.503-0.476-0.661-0.812
		c-0.157-0.336-0.236-0.738-0.236-1.211c0-0.451,0.092-0.84,0.275-1.164c0.183-0.326,0.433-0.588,0.748-0.787
		c0.314-0.199,0.682-0.347,1.102-0.44c0.419-0.095,0.86-0.142,1.322-0.142c0.147,0,0.299,0.008,0.457,0.022
		c0.157,0.017,0.307,0.037,0.448,0.063c0.142,0.025,0.265,0.051,0.37,0.07c0.104,0.021,0.178,0.037,0.22,0.047v-0.408
		c0-0.241-0.026-0.479-0.079-0.717c-0.053-0.235-0.147-0.444-0.284-0.629c-0.137-0.184-0.322-0.33-0.559-0.44
		c-0.236-0.109-0.543-0.165-0.92-0.165c-0.483,0-0.905,0.033-1.267,0.104c-0.362,0.067-0.632,0.139-0.811,0.211l-0.173-1.211
		c0.189-0.084,0.504-0.166,0.944-0.244C47.013,118.482,47.49,118.443,48.004,118.443z M48.13,125.775
		c0.346,0,0.653-0.008,0.92-0.022c0.267-0.015,0.49-0.044,0.669-0.086v-2.438c-0.105-0.054-0.275-0.098-0.512-0.135
		c-0.236-0.037-0.522-0.056-0.857-0.056c-0.22,0-0.454,0.017-0.7,0.048c-0.247,0.031-0.472,0.098-0.677,0.196
		s-0.375,0.235-0.512,0.409c-0.137,0.172-0.205,0.4-0.205,0.685c0,0.524,0.168,0.89,0.504,1.094
		C47.097,125.675,47.553,125.775,48.13,125.775z"/>
	<path fill="#FFFFFF" d="M58.532,119.592c0.325-0.262,0.705-0.464,1.141-0.605c0.435-0.141,0.853-0.213,1.251-0.213
		c1.175,0,2.064,0.36,2.667,1.078c0.603,0.719,0.905,1.719,0.905,2.998c0,0.547-0.073,1.07-0.22,1.573
		c-0.147,0.504-0.375,0.95-0.685,1.338c-0.31,0.39-0.7,0.698-1.172,0.929c-0.472,0.231-1.033,0.347-1.684,0.347
		c-0.745,0-1.364-0.136-1.857-0.408c-0.494-0.272-0.884-0.646-1.172-1.118c-0.289-0.472-0.491-1.021-0.606-1.652
		c-0.116-0.629-0.173-1.295-0.173-1.998c0-0.912,0.065-1.762,0.197-2.549c0.131-0.787,0.37-1.479,0.716-2.078
		c0.347-0.598,0.826-1.094,1.44-1.486c0.614-0.393,1.403-0.658,2.369-0.794c0.283-0.042,0.532-0.076,0.748-0.103
		c0.215-0.026,0.404-0.051,0.566-0.072c0.163-0.021,0.312-0.043,0.449-0.069c0.136-0.026,0.278-0.056,0.425-0.087l0.157,1.322
		c-0.074,0.021-0.149,0.037-0.228,0.047c-0.079,0.011-0.189,0.025-0.331,0.047s-0.331,0.048-0.566,0.079
		c-0.236,0.03-0.543,0.067-0.921,0.11c-1.039,0.114-1.836,0.43-2.392,0.943C58.999,117.684,58.658,118.49,58.532,119.592z
		 M58.438,122.096c0,0.492,0.034,0.959,0.103,1.399c0.068,0.44,0.188,0.829,0.362,1.164c0.173,0.336,0.406,0.601,0.7,0.795
		c0.293,0.194,0.671,0.291,1.133,0.291c0.398,0,0.739-0.076,1.022-0.229c0.284-0.15,0.514-0.357,0.693-0.621
		c0.178-0.262,0.309-0.568,0.393-0.92c0.084-0.353,0.126-0.728,0.126-1.125c0-0.356-0.034-0.703-0.102-1.039
		c-0.068-0.336-0.192-0.635-0.37-0.896c-0.178-0.262-0.417-0.473-0.716-0.63c-0.299-0.157-0.674-0.235-1.125-0.235
		c-0.44,0-0.863,0.094-1.267,0.283c-0.404,0.188-0.716,0.42-0.937,0.691c-0.01,0.115-0.016,0.278-0.016,0.487
		C58.438,121.723,58.438,121.916,58.438,122.096z"/>
	<path fill="#FFFFFF" d="M73.796,122.739c0,0.649-0.094,1.237-0.283,1.763c-0.188,0.523-0.454,0.977-0.794,1.354
		c-0.341,0.379-0.748,0.67-1.22,0.873c-0.472,0.205-0.986,0.308-1.542,0.308c-0.557,0-1.07-0.103-1.542-0.308
		c-0.472-0.203-0.879-0.494-1.22-0.873c-0.341-0.377-0.605-0.828-0.794-1.354s-0.283-1.111-0.283-1.763
		c0-0.64,0.094-1.226,0.283-1.755s0.454-0.983,0.794-1.36c0.341-0.378,0.748-0.669,1.22-0.874c0.472-0.204,0.986-0.307,1.542-0.307
		s1.07,0.103,1.542,0.307c0.472,0.205,0.878,0.496,1.22,0.874c0.341,0.377,0.606,0.831,0.794,1.36
		C73.702,121.516,73.796,122.1,73.796,122.739z M72.27,122.739c0-0.923-0.207-1.654-0.622-2.195
		c-0.415-0.54-0.979-0.812-1.691-0.812c-0.714,0-1.278,0.271-1.692,0.812c-0.415,0.541-0.622,1.272-0.622,2.195
		c0,0.924,0.207,1.655,0.622,2.194c0.414,0.541,0.978,0.812,1.692,0.812c0.713,0,1.277-0.271,1.691-0.812
		C72.063,124.395,72.27,123.663,72.27,122.739z"/>
	<path fill="#FFFFFF" d="M82.562,126.831h-1.463v-3.619h-3.777v3.619h-1.464v-8.185h1.464v3.338h3.777v-3.338h1.463V126.831z"/>
	<path fill="#FFFFFF" d="M84.119,128.357c0.115,0.053,0.265,0.103,0.447,0.148c0.185,0.049,0.365,0.071,0.543,0.071
		c0.578,0,1.029-0.129,1.354-0.386c0.326-0.258,0.619-0.676,0.882-1.252c-0.66-1.258-1.277-2.594-1.85-4.004
		c-0.571-1.412-1.046-2.842-1.424-4.289h1.572c0.115,0.473,0.256,0.98,0.418,1.526c0.162,0.545,0.344,1.106,0.543,1.685
		s0.414,1.153,0.646,1.729c0.229,0.577,0.472,1.134,0.724,1.669c0.398-1.102,0.746-2.193,1.039-3.273s0.571-2.191,0.834-3.336h1.512
		c-0.379,1.543-0.799,3.023-1.26,4.445s-0.959,2.751-1.494,3.989c-0.211,0.472-0.429,0.878-0.653,1.22
		c-0.226,0.342-0.476,0.621-0.747,0.842c-0.273,0.221-0.58,0.383-0.921,0.487s-0.728,0.158-1.156,0.158
		c-0.116,0-0.235-0.009-0.362-0.024c-0.125-0.015-0.248-0.035-0.369-0.063c-0.121-0.026-0.23-0.057-0.33-0.088
		c-0.101-0.03-0.172-0.057-0.213-0.077L84.119,128.357z"/>
	<path fill="#FFFFFF" d="M96.27,127.02c-0.662,0-1.24-0.104-1.74-0.313c-0.497-0.21-0.918-0.504-1.258-0.881
		c-0.342-0.378-0.597-0.826-0.764-1.347c-0.168-0.52-0.252-1.094-0.252-1.724c0-0.629,0.092-1.206,0.275-1.729
		c0.183-0.524,0.443-0.979,0.779-1.361c0.334-0.383,0.746-0.682,1.233-0.896c0.488-0.216,1.031-0.322,1.629-0.322
		c0.367,0,0.734,0.031,1.103,0.095c0.367,0.063,0.719,0.162,1.055,0.299L98,120.08c-0.221-0.104-0.477-0.188-0.764-0.252
		c-0.289-0.063-0.596-0.096-0.922-0.096c-0.817,0-1.444,0.259-1.879,0.771c-0.437,0.514-0.653,1.266-0.653,2.25
		c0,0.441,0.05,0.846,0.149,1.212c0.098,0.367,0.256,0.683,0.471,0.944c0.217,0.263,0.492,0.464,0.826,0.605
		c0.336,0.142,0.746,0.213,1.229,0.213c0.389,0,0.74-0.037,1.055-0.11c0.315-0.073,0.563-0.151,0.739-0.236l0.205,1.228
		c-0.084,0.054-0.205,0.104-0.362,0.149c-0.156,0.048-0.336,0.091-0.535,0.126c-0.199,0.037-0.41,0.068-0.637,0.096
		C96.695,127.007,96.479,127.02,96.27,127.02z"/>
	<path fill="#FFFFFF" d="M106.732,126.831h-1.463v-3.619h-3.776v3.619h-1.464v-8.185h1.464v3.338h3.776v-3.338h1.463V126.831z"/>
	<path fill="#FFFFFF" d="M109.251,118.646h1.464v3.133c0.178-0.043,0.438-0.084,0.778-0.127c0.341-0.041,0.669-0.063,0.983-0.063
		c0.431,0,0.84,0.051,1.229,0.149c0.388,0.1,0.729,0.257,1.021,0.472c0.295,0.216,0.527,0.493,0.7,0.834
		c0.173,0.342,0.261,0.748,0.261,1.221c0,0.492-0.084,0.912-0.252,1.258c-0.168,0.348-0.404,0.631-0.709,0.852
		s-0.672,0.38-1.102,0.479c-0.432,0.101-0.902,0.149-1.416,0.149c-0.493,0-0.992-0.028-1.495-0.086
		c-0.504-0.06-0.991-0.146-1.464-0.26L109.251,118.646L109.251,118.646z M112.257,122.787c-0.282,0-0.559,0.008-0.825,0.023
		c-0.268,0.015-0.507,0.049-0.717,0.102v2.816c0.063,0.012,0.154,0.021,0.275,0.031c0.119,0.012,0.252,0.02,0.394,0.023
		c0.142,0.006,0.285,0.011,0.433,0.017c0.146,0.005,0.277,0.009,0.395,0.009c0.641,0,1.133-0.121,1.479-0.363
		c0.348-0.24,0.521-0.629,0.521-1.164c0-0.262-0.056-0.487-0.165-0.676c-0.109-0.189-0.257-0.345-0.439-0.465
		c-0.185-0.121-0.393-0.211-0.623-0.269C112.753,122.814,112.509,122.787,112.257,122.787z M118.662,126.831h-1.464v-8.185h1.464
		V126.831z"/>
	<path fill="#FFFFFF" d="M128.057,118.646v8.185h-1.416V120.6c-0.313,0.398-0.66,0.865-1.039,1.4
		c-0.377,0.535-0.754,1.089-1.133,1.66c-0.378,0.572-0.738,1.136-1.086,1.691c-0.346,0.557-0.646,1.049-0.896,1.479h-1.307v-8.184
		h1.416v5.886c0.273-0.45,0.584-0.946,0.93-1.487c0.347-0.54,0.705-1.074,1.078-1.604c0.371-0.53,0.744-1.039,1.117-1.526
		c0.371-0.488,0.721-0.91,1.047-1.269H128.057z M124.626,117.326c-0.661,0-1.198-0.168-1.612-0.504s-0.664-0.803-0.748-1.4
		l1.117-0.299c0.084,0.336,0.227,0.607,0.426,0.818c0.198,0.209,0.473,0.313,0.817,0.313c0.347,0,0.619-0.104,0.817-0.313
		c0.199-0.211,0.342-0.482,0.426-0.818l1.102,0.299c-0.084,0.598-0.33,1.064-0.738,1.4
		C125.822,117.158,125.287,117.326,124.626,117.326z"/>
	<path fill="#FFFFFF" d="M71.019,145.902c-0.661,0-1.241-0.104-1.739-0.313c-0.499-0.21-0.918-0.504-1.259-0.881
		c-0.341-0.378-0.595-0.826-0.763-1.347c-0.168-0.52-0.251-1.094-0.251-1.723c0-0.63,0.092-1.207,0.275-1.73
		c0.183-0.524,0.443-0.979,0.779-1.361c0.335-0.383,0.748-0.682,1.235-0.896c0.488-0.215,1.031-0.322,1.629-0.322
		c0.367,0,0.734,0.031,1.102,0.095c0.367,0.063,0.718,0.162,1.054,0.3l-0.331,1.242c-0.22-0.104-0.475-0.188-0.763-0.252
		c-0.289-0.063-0.596-0.095-0.92-0.095c-0.818,0-1.445,0.258-1.881,0.771c-0.435,0.514-0.653,1.266-0.653,2.25
		c0,0.441,0.05,0.846,0.149,1.213c0.099,0.366,0.257,0.683,0.472,0.943c0.215,0.264,0.49,0.464,0.826,0.605
		c0.335,0.142,0.745,0.213,1.228,0.213c0.388,0,0.74-0.037,1.054-0.11c0.315-0.073,0.561-0.151,0.74-0.235l0.205,1.228
		c-0.084,0.053-0.205,0.103-0.362,0.149c-0.158,0.047-0.336,0.09-0.535,0.125c-0.2,0.037-0.412,0.068-0.637,0.096
		C71.446,145.891,71.229,145.902,71.019,145.902z"/>
	<path fill="#FFFFFF" d="M75.708,137.531v2.408c0,0.619,0.157,1.052,0.472,1.297c0.314,0.248,0.745,0.371,1.29,0.371
		c0.399,0,0.732-0.021,1-0.063c0.268-0.042,0.506-0.089,0.716-0.142v-3.872h1.464v8.184h-1.464v-3.179
		c-0.084,0.021-0.194,0.047-0.33,0.078c-0.137,0.031-0.292,0.061-0.464,0.087c-0.173,0.026-0.354,0.05-0.543,0.071
		c-0.189,0.021-0.373,0.031-0.551,0.031c-0.451,0-0.863-0.049-1.235-0.143c-0.373-0.096-0.692-0.252-0.96-0.473
		s-0.478-0.512-0.629-0.873c-0.152-0.362-0.228-0.815-0.228-1.361v-2.424h1.462V137.531z"/>
	<path fill="#FFFFFF" d="M82.711,141.639c0-0.724,0.104-1.354,0.314-1.896c0.211-0.541,0.488-0.989,0.834-1.347
		c0.348-0.355,0.746-0.623,1.197-0.803c0.45-0.179,0.911-0.268,1.385-0.268c1.102,0,1.945,0.344,2.533,1.029
		c0.588,0.688,0.881,1.734,0.881,3.141c0,0.063,0,0.145,0,0.244c0,0.099-0.006,0.191-0.017,0.275h-5.603
		c0.063,0.85,0.31,1.494,0.738,1.936c0.433,0.439,1.103,0.66,2.017,0.66c0.514,0,0.944-0.045,1.297-0.133
		c0.353-0.09,0.616-0.177,0.795-0.261l0.205,1.228c-0.179,0.096-0.49,0.195-0.937,0.3c-0.447,0.104-0.953,0.157-1.52,0.157
		c-0.713,0-1.33-0.107-1.85-0.322c-0.519-0.215-0.945-0.512-1.281-0.889c-0.336-0.379-0.586-0.826-0.748-1.346
		C82.792,142.827,82.711,142.258,82.711,141.639z M88.33,140.837c0.01-0.661-0.156-1.204-0.496-1.629
		c-0.342-0.425-0.811-0.638-1.408-0.638c-0.336,0-0.633,0.064-0.891,0.195c-0.256,0.133-0.475,0.303-0.652,0.512
		c-0.177,0.211-0.316,0.451-0.416,0.725c-0.102,0.273-0.166,0.551-0.197,0.835H88.33z"/>
	<path fill="#FFFFFF" d="M97.738,137.531v1.228H95.08v6.956h-1.464v-6.956h-2.659v-1.228H97.738z"/>
</g>
<g>
	<path fill="#FFFFFF" d="M125.333,65.749h-3.329v6.426h-1.354v-7.56h4.683V65.749z"/>
	<path fill="#FFFFFF" d="M133.387,68.409c0,0.572-0.076,1.1-0.227,1.584c-0.15,0.485-0.37,0.901-0.661,1.25
		c-0.29,0.349-0.646,0.621-1.067,0.814c-0.422,0.194-0.904,0.291-1.447,0.291c-0.437,0-0.821-0.058-1.154-0.174
		c-0.335-0.117-0.585-0.228-0.749-0.334v3.024h-1.353V64.847c0.318-0.077,0.72-0.162,1.199-0.254
		c0.479-0.092,1.033-0.138,1.664-0.138c0.581,0,1.105,0.092,1.57,0.276c0.465,0.185,0.861,0.446,1.191,0.785
		c0.33,0.34,0.584,0.754,0.764,1.243C133.296,67.249,133.387,67.799,133.387,68.409z M131.977,68.409
		c0-0.882-0.219-1.561-0.654-2.036c-0.438-0.475-1.018-0.712-1.745-0.712c-0.406,0-0.724,0.015-0.951,0.044
		c-0.228,0.029-0.41,0.063-0.545,0.102v4.769c0.164,0.136,0.401,0.266,0.712,0.392s0.648,0.189,1.018,0.189
		c0.389,0,0.721-0.07,0.996-0.211c0.275-0.141,0.502-0.334,0.676-0.582c0.176-0.248,0.302-0.538,0.379-0.872
		C131.938,69.157,131.977,68.796,131.977,68.409z"/>
	<path fill="#FFFFFF" d="M141.484,72.174h-1.354v-3.343h-3.488v3.343h-1.353v-7.56h1.353v3.083h3.488v-3.083h1.354V72.174z"/>
</g>
<g>
	<path fill="#FFFFFF" d="M31.952,57.59c-0.681,0-1.359-0.021-2.033-0.063c-0.675-0.042-1.376-0.14-2.104-0.295V45.197
		c0.573-0.108,1.2-0.188,1.881-0.242c0.68-0.054,1.313-0.081,1.898-0.081c0.788,0,1.513,0.057,2.176,0.171
		c0.662,0.113,1.233,0.308,1.71,0.581c0.477,0.276,0.851,0.636,1.119,1.084s0.403,1,0.403,1.657c0,0.991-0.479,1.773-1.433,2.346
		c0.788,0.299,1.325,0.705,1.611,1.218c0.287,0.514,0.43,1.092,0.43,1.737c0,1.302-0.475,2.281-1.424,2.938
		C35.238,57.262,33.826,57.59,31.952,57.59z M30.537,49.89h1.36c0.86,0,1.475-0.111,1.845-0.332
		c0.369-0.221,0.555-0.576,0.555-1.065c0-0.502-0.192-0.854-0.573-1.056c-0.382-0.204-0.943-0.305-1.683-0.305
		c-0.24,0-0.496,0.003-0.771,0.009c-0.275,0.006-0.519,0.021-0.734,0.045V49.89z M30.537,52.021v3.206
		c0.203,0.024,0.423,0.042,0.663,0.054c0.238,0.012,0.501,0.018,0.788,0.018c0.836,0,1.511-0.119,2.023-0.358
		c0.514-0.239,0.771-0.681,0.771-1.326c0-0.573-0.215-0.981-0.645-1.226c-0.43-0.246-1.045-0.368-1.845-0.368H30.537z"/>
	<path fill="#FFFFFF" d="M48.482,52.701c0,0.741-0.108,1.419-0.323,2.033c-0.215,0.615-0.525,1.141-0.932,1.576
		c-0.406,0.436-0.893,0.774-1.459,1.013c-0.567,0.238-1.203,0.358-1.908,0.358c-0.692,0-1.322-0.12-1.889-0.358
		c-0.567-0.239-1.054-0.577-1.459-1.013c-0.406-0.436-0.723-0.961-0.949-1.576c-0.227-0.614-0.34-1.292-0.34-2.033
		c0-0.74,0.117-1.415,0.349-2.023c0.233-0.609,0.555-1.128,0.967-1.558c0.412-0.43,0.901-0.765,1.468-1.004
		c0.567-0.238,1.185-0.358,1.854-0.358c0.681,0,1.305,0.12,1.872,0.358c0.567,0.239,1.054,0.574,1.46,1.004
		c0.406,0.43,0.722,0.948,0.95,1.558C48.369,51.286,48.482,51.961,48.482,52.701z M45.76,52.701c0-0.824-0.164-1.471-0.493-1.943
		c-0.328-0.472-0.797-0.708-1.406-0.708c-0.608,0-1.08,0.236-1.414,0.708c-0.334,0.472-0.502,1.119-0.502,1.943
		c0,0.824,0.168,1.478,0.502,1.961s0.806,0.725,1.414,0.725c0.609,0,1.078-0.241,1.406-0.725
		C45.596,54.178,45.76,53.525,45.76,52.701z"/>
	<path fill="#FFFFFF" d="M50.093,48.313c0.418-0.155,0.901-0.28,1.451-0.375c0.548-0.096,1.146-0.144,1.791-0.144
		c0.489,0,0.967,0.045,1.433,0.134c0.466,0.089,0.88,0.239,1.245,0.448c0.365,0.209,0.657,0.483,0.878,0.823
		c0.22,0.341,0.331,0.768,0.331,1.281c0,0.465-0.107,0.862-0.322,1.191s-0.519,0.6-0.914,0.815c0.525,0.226,0.914,0.525,1.165,0.896
		c0.25,0.37,0.376,0.841,0.376,1.415c0,0.538-0.114,0.988-0.34,1.353s-0.531,0.66-0.913,0.886c-0.383,0.227-0.818,0.392-1.307,0.492
		c-0.49,0.102-0.998,0.153-1.522,0.153c-0.311,0-0.633-0.015-0.967-0.044c-0.334-0.03-0.66-0.072-0.977-0.126
		s-0.618-0.122-0.904-0.206c-0.287-0.083-0.543-0.172-0.77-0.269l0.483-2.077c0.251,0.096,0.636,0.208,1.156,0.34
		c0.52,0.131,1.107,0.197,1.764,0.197c1.074,0,1.612-0.299,1.612-0.896c0-0.203-0.042-0.368-0.126-0.493
		c-0.083-0.125-0.194-0.224-0.331-0.295c-0.138-0.072-0.295-0.12-0.475-0.144c-0.179-0.024-0.358-0.036-0.538-0.036h-2.095v-1.898
		h2.113c0.43,0,0.731-0.087,0.905-0.261c0.172-0.172,0.259-0.372,0.259-0.599s-0.099-0.433-0.295-0.618
		c-0.196-0.186-0.558-0.277-1.083-0.277c-0.526,0-1.021,0.048-1.486,0.143c-0.466,0.096-0.842,0.186-1.128,0.27L50.093,48.313z"/>
	<path fill="#FFFFFF" d="M63.491,57.608c-0.334,0-0.693-0.012-1.075-0.036c-0.382-0.024-0.759-0.057-1.128-0.099
		c-0.37-0.042-0.719-0.089-1.048-0.143c-0.329-0.054-0.606-0.104-0.833-0.153v-9.026c0.227-0.048,0.504-0.093,0.833-0.135
		s0.678-0.08,1.048-0.116c0.37-0.037,0.746-0.063,1.128-0.081c0.381-0.018,0.74-0.027,1.075-0.027c0.775,0,1.43,0.078,1.961,0.233
		c0.531,0.155,0.96,0.358,1.289,0.608c0.329,0.251,0.564,0.531,0.708,0.842s0.215,0.621,0.215,0.932c0,0.418-0.102,0.8-0.305,1.146
		c-0.204,0.346-0.46,0.598-0.771,0.752c0.168,0.072,0.337,0.173,0.511,0.305c0.172,0.131,0.331,0.289,0.474,0.474
		c0.144,0.186,0.259,0.407,0.349,0.663s0.134,0.552,0.134,0.886c0,0.383-0.074,0.752-0.224,1.11
		c-0.149,0.358-0.402,0.675-0.761,0.949c-0.358,0.274-0.83,0.495-1.416,0.663C65.072,57.525,64.35,57.608,63.491,57.608z
		 M63.581,51.698c0.44,0,0.799-0.057,1.074-0.17c0.275-0.113,0.412-0.36,0.412-0.743c0-0.358-0.155-0.603-0.465-0.734
		c-0.311-0.131-0.717-0.197-1.218-0.197c-0.167,0-0.385,0.01-0.654,0.027c-0.269,0.018-0.487,0.039-0.653,0.063v1.755H63.581z
		 M62.076,55.459c0.167,0.024,0.391,0.044,0.671,0.063c0.281,0.018,0.541,0.027,0.779,0.027c0.597,0,1.063-0.075,1.397-0.225
		c0.334-0.148,0.501-0.42,0.501-0.814c0-0.381-0.152-0.647-0.457-0.797c-0.305-0.149-0.75-0.224-1.334-0.224h-1.558V55.459z"/>
	<path fill="#FFFFFF" d="M78.874,52.72c0,0.728-0.089,1.39-0.269,1.987c-0.178,0.597-0.441,1.11-0.788,1.54
		c-0.346,0.43-0.776,0.765-1.289,1.003c-0.514,0.239-1.105,0.358-1.773,0.358c-0.371,0-0.717-0.036-1.04-0.108
		c-0.322-0.071-0.633-0.172-0.932-0.304v3.546h-2.668V48.331c0.239-0.071,0.514-0.14,0.825-0.206c0.31-0.066,0.635-0.122,0.975-0.17
		c0.341-0.047,0.687-0.086,1.04-0.116c0.352-0.03,0.689-0.045,1.011-0.045c0.776,0,1.469,0.117,2.078,0.349
		c0.609,0.233,1.122,0.562,1.541,0.985c0.417,0.424,0.737,0.939,0.958,1.549C78.764,51.286,78.874,51.967,78.874,52.72z
		 M76.152,52.791c0-0.824-0.186-1.483-0.555-1.979c-0.37-0.495-0.919-0.744-1.648-0.744c-0.239,0-0.459,0.01-0.663,0.027
		c-0.203,0.018-0.37,0.039-0.501,0.063v4.818c0.167,0.107,0.386,0.197,0.654,0.269c0.269,0.071,0.54,0.107,0.815,0.107
		C75.519,55.352,76.152,54.498,76.152,52.791z"/>
	<path fill="#FFFFFF" d="M84.317,47.758c0.789,0,1.444,0.09,1.972,0.269c0.524,0.179,0.945,0.436,1.262,0.77
		c0.316,0.334,0.54,0.74,0.672,1.218c0.131,0.477,0.196,1.008,0.196,1.594v5.551c-0.382,0.084-0.912,0.183-1.594,0.296
		c-0.681,0.113-1.505,0.17-2.472,0.17c-0.608,0-1.161-0.053-1.656-0.161c-0.496-0.107-0.923-0.284-1.28-0.528
		c-0.358-0.244-0.633-0.564-0.825-0.958c-0.19-0.393-0.286-0.877-0.286-1.45c0-0.549,0.11-1.015,0.332-1.397
		c0.221-0.382,0.516-0.687,0.886-0.914c0.37-0.227,0.794-0.39,1.271-0.492c0.478-0.102,0.973-0.153,1.487-0.153
		c0.346,0,0.653,0.015,0.923,0.045c0.268,0.03,0.486,0.069,0.653,0.117v-0.251c0-0.454-0.138-0.817-0.412-1.092
		c-0.275-0.275-0.752-0.413-1.433-0.413c-0.453,0-0.902,0.033-1.344,0.099c-0.441,0.065-0.823,0.158-1.146,0.276l-0.34-2.149
		c0.155-0.047,0.35-0.098,0.582-0.152c0.233-0.053,0.486-0.101,0.762-0.143c0.274-0.042,0.563-0.078,0.869-0.108
		C83.7,47.773,84.008,47.758,84.317,47.758z M84.532,55.567c0.264,0,0.514-0.006,0.753-0.018c0.238-0.013,0.43-0.03,0.573-0.054
		v-2.023c-0.108-0.024-0.269-0.048-0.483-0.072c-0.216-0.023-0.412-0.036-0.591-0.036c-0.252,0-0.487,0.016-0.708,0.045
		s-0.415,0.087-0.582,0.169c-0.167,0.084-0.299,0.197-0.395,0.341c-0.095,0.144-0.143,0.322-0.143,0.537
		c0,0.418,0.14,0.708,0.421,0.869C83.658,55.486,84.043,55.567,84.532,55.567z"/>
	<path fill="#FFFFFF" d="M103.052,57.429H90.837v-9.42h2.669v7.236h2.453v-7.236h2.67v7.236h2.436v-7.236h2.668v7.236h1.594v4.871
		h-2.274V57.429z"/>
	<path fill="#FFFFFF" d="M110.324,47.758c0.786,0,1.443,0.09,1.968,0.269c0.527,0.179,0.946,0.436,1.265,0.77
		c0.315,0.334,0.539,0.74,0.67,1.218c0.132,0.477,0.198,1.008,0.198,1.594v5.551c-0.384,0.084-0.914,0.183-1.594,0.296
		c-0.681,0.113-1.505,0.17-2.472,0.17c-0.609,0-1.162-0.053-1.656-0.161c-0.497-0.107-0.923-0.284-1.281-0.528
		c-0.358-0.244-0.633-0.564-0.823-0.958c-0.19-0.393-0.287-0.877-0.287-1.45c0-0.549,0.11-1.015,0.33-1.397
		c0.222-0.382,0.518-0.687,0.889-0.914c0.368-0.227,0.792-0.39,1.271-0.492s0.974-0.153,1.486-0.153
		c0.347,0,0.654,0.015,0.923,0.045c0.268,0.03,0.487,0.069,0.652,0.117v-0.251c0-0.454-0.137-0.817-0.41-1.092
		c-0.276-0.275-0.753-0.413-1.434-0.413c-0.454,0-0.901,0.033-1.343,0.099c-0.442,0.065-0.824,0.158-1.146,0.276l-0.342-2.149
		c0.156-0.047,0.35-0.098,0.583-0.152c0.231-0.053,0.485-0.101,0.761-0.143c0.274-0.042,0.563-0.078,0.869-0.108
		C109.705,47.773,110.012,47.758,110.324,47.758z M110.537,55.567c0.264,0,0.515-0.006,0.753-0.018
		c0.239-0.013,0.43-0.03,0.572-0.054v-2.023c-0.106-0.024-0.268-0.048-0.482-0.072c-0.216-0.023-0.412-0.036-0.591-0.036
		c-0.252,0-0.487,0.016-0.707,0.045c-0.222,0.03-0.416,0.087-0.583,0.169c-0.166,0.084-0.299,0.197-0.394,0.341
		c-0.097,0.144-0.144,0.322-0.144,0.537c0,0.418,0.14,0.708,0.421,0.869C109.663,55.486,110.048,55.567,110.537,55.567z"/>
	<path fill="#FFFFFF" d="M116.394,52.791c0-0.835,0.129-1.567,0.385-2.194c0.257-0.626,0.596-1.148,1.012-1.567
		c0.418-0.418,0.899-0.735,1.443-0.95c0.542-0.215,1.101-0.322,1.675-0.322c1.337,0,2.394,0.409,3.169,1.227
		c0.776,0.818,1.163,2.021,1.163,3.609c0,0.156-0.006,0.326-0.018,0.511s-0.024,0.349-0.036,0.493h-6.052
		c0.06,0.549,0.315,0.984,0.769,1.307c0.455,0.322,1.063,0.483,1.829,0.483c0.489,0,0.968-0.044,1.441-0.134
		c0.471-0.09,0.856-0.2,1.154-0.332l0.357,2.167c-0.143,0.071-0.334,0.143-0.573,0.214c-0.238,0.071-0.503,0.134-0.797,0.188
		c-0.292,0.054-0.605,0.099-0.94,0.134c-0.333,0.036-0.669,0.054-1.002,0.054c-0.849,0-1.585-0.125-2.213-0.376
		c-0.627-0.25-1.146-0.594-1.558-1.03c-0.411-0.436-0.716-0.953-0.913-1.549C116.493,54.128,116.394,53.483,116.394,52.791z
		 M122.663,51.77c-0.012-0.227-0.052-0.448-0.116-0.663c-0.066-0.215-0.168-0.406-0.306-0.573c-0.137-0.167-0.31-0.305-0.519-0.412
		c-0.21-0.107-0.47-0.161-0.779-0.161c-0.3,0-0.556,0.051-0.771,0.152c-0.216,0.102-0.396,0.235-0.537,0.403
		c-0.144,0.167-0.254,0.361-0.331,0.582c-0.079,0.221-0.134,0.445-0.17,0.672H122.663z"/>
	<path fill="#FFFFFF" d="M129.951,51.994c-0.022,0.419-0.048,0.873-0.07,1.363c-0.026,0.491-0.046,0.984-0.063,1.48
		c-0.018,0.496-0.036,0.968-0.054,1.417c-0.02,0.449-0.033,0.841-0.045,1.175h-2.598c0.024-0.656,0.063-1.397,0.116-2.221
		c0.054-0.824,0.114-1.663,0.18-2.516c0.065-0.854,0.137-1.687,0.215-2.499s0.152-1.54,0.224-2.185h2.222
		c0.514,0.834,0.988,1.699,1.42,2.593c0.43,0.895,0.885,1.877,1.365,2.95c0.502-1.144,0.994-2.201,1.472-3.173
		c0.48-0.971,0.911-1.761,1.295-2.369h2.256c0.085,0.645,0.164,1.373,0.242,2.185c0.077,0.812,0.15,1.645,0.216,2.499
		c0.065,0.853,0.122,1.692,0.169,2.516c0.048,0.824,0.084,1.564,0.107,2.221h-2.649c-0.025-0.933-0.057-1.859-0.1-2.78
		c-0.042-0.921-0.082-1.812-0.117-2.673l-1.976,4.342h-1.85L129.951,51.994z"/>
</g>
</svg>
